<svg xmlns="http://www.w3.org/2000/svg" viewBox="0 0 512 512" width="512" height="512">
  <rect width="512" height="512" rx="0" fill="#ffffff"/>
  <g transform="translate(256,256) scale(1.6) translate(-320.63,-543.75)">
    <path d="M0 0 C2.93578406 0.04077138 5.87109769 0.04408484 8.80712605 0.04643822 C11.66509503 0.05116881 14.5227604 0.07202883 17.3806057 0.09831619 C19.38000605 0.11596325 21.37946804 0.12612785 23.37892151 0.13607788 C38.42248896 0.40916247 49.6146437 4.85800911 60.58807373 15.21801758 C72.38800006 27.74038838 72.52130122 43.61596209 72.17791748 59.90161133 C71.55416972 76.02693839 66.08913832 91.59569208 54.13885498 102.84301758 C41.98768453 112.61449607 28.42110635 115.30108684 13.19744873 114.96801758 C11.81530082 114.95649292 10.43313718 114.94671769 9.05096436 114.9387207 C-0.94618652 114.82438233 -0.94618652 114.82438233 -2.11505127 113.65551758 C-2.33338116 109.25552813 -2.30084273 104.85016946 -2.300354 100.4453125 C-2.30253878 98.23067975 -2.32068658 96.01654634 -2.33966064 93.80200195 C-2.34259483 92.40031096 -2.34457946 90.99861758 -2.34552002 89.59692383 C-2.34962891 88.31503174 -2.35373779 87.03313965 -2.35797119 85.71240234 C-2.11505127 82.65551758 -2.11505127 82.65551758 -0.11505127 80.65551758 C2.08050537 80.38427734 2.08050537 80.38427734 4.79510498 80.34692383 C5.78574951 80.32178711 6.77639404 80.29665039 7.79705811 80.27075195 C9.86991993 80.23605433 11.94284109 80.20471189 14.01580811 80.17700195 C21.17743103 79.98768761 28.28376533 79.58474103 34.04119873 74.90161133 C34.48463623 74.30477539 34.92807373 73.70793945 35.38494873 73.09301758 C35.84901123 72.49360352 36.31307373 71.89418945 36.79119873 71.27661133 C39.86992772 66.71349514 39.14836679 61.75217675 39.19744873 56.40551758 C39.22645264 55.36782227 39.25545654 54.33012695 39.28533936 53.26098633 C39.33704031 47.03301007 39.03063647 43.40236907 34.88494873 38.65551758 C34.38994873 38.07801758 33.89494873 37.50051758 33.38494873 36.90551758 C29.96147092 34.0526194 27.01134273 33.3967351 22.60418701 33.31738281 C21.54853546 33.29494003 20.49288391 33.27249725 19.40524292 33.24937439 C18.26674896 33.23773758 17.128255 33.22610077 15.95526123 33.21411133 C14.77334198 33.20033951 13.59142273 33.18656769 12.37368774 33.17237854 C9.86707235 33.14909444 7.36039488 33.13183522 4.85369873 33.12011719 C1.0582376 33.09335803 -2.73436245 33.01849233 -6.52911377 32.94262695 C-19.8972691 32.79838296 -29.88997206 33.01532939 -41.11505127 40.65551758 C-42.57829158 41.41986293 -44.05330362 42.16260628 -45.54473877 42.87036133 C-46.68169189 43.43883789 -47.81864502 44.00731445 -48.99005127 44.59301758 C-51.03171794 45.61385091 -53.0733846 46.63468424 -55.11505127 47.65551758 C-52.94880926 49.05201348 -50.78204745 50.44769283 -48.61505127 51.84301758 C-47.97736816 52.25430908 -47.33968506 52.66560059 -46.68267822 53.08935547 C-43.24750986 55.30082415 -39.79529282 57.47310863 -36.30255127 59.59301758 C-33.11505127 61.65551758 -33.11505127 61.65551758 -32.11505127 63.65551758 C-31.99634617 66.06978816 -31.93677611 68.45616143 -31.92218018 70.87158203 C-31.90991394 71.98651031 -31.90991394 71.98651031 -31.8973999 73.1239624 C-31.87254499 75.58889966 -31.85602973 78.05377932 -31.84161377 80.51879883 C-31.83629009 81.36023123 -31.83096642 82.20166363 -31.82548141 83.06859398 C-31.79874939 87.52228256 -31.7793747 91.9759431 -31.76495361 96.4296875 C-31.74830545 101.03006242 -31.70352703 105.62972097 -31.65258217 110.22982502 C-31.61892721 113.76688968 -31.60737816 117.30378394 -31.60172653 120.84099388 C-31.59500915 122.53668887 -31.57977431 124.23237245 -31.55583572 125.92791176 C-31.52421683 128.30295822 -31.52414146 130.67606788 -31.53155518 133.05126953 C-31.51514984 133.75015793 -31.49874451 134.44904633 -31.48184204 135.16911316 C-31.53081673 139.00698573 -32.016589 140.53654501 -34.49697876 143.53361511 C-36.99110992 145.55506526 -39.32270908 147.07510784 -42.17755127 148.53051758 C-49.61963168 152.43735871 -57.12377623 156.3809803 -63.92755127 161.34301758 C-67.23571651 163.74305903 -70.54519468 165.67226392 -74.11505127 167.65551758 C-75.04317627 168.23301758 -75.97130127 168.81051758 -76.92755127 169.40551758 C-79.11505127 170.65551758 -79.11505127 170.65551758 -81.11505127 170.65551758 C-81.18507966 151.80170295 -81.23800913 132.94791464 -81.27048779 114.093997 C-81.28596788 105.340127 -81.30707914 96.58633772 -81.34136963 87.83251953 C-81.37123711 80.20419967 -81.39061796 72.57593827 -81.39731675 64.94756156 C-81.40123353 60.90700631 -81.41046203 56.8666183 -81.43224144 52.82611656 C-81.45256483 49.02503189 -81.45889356 45.22418377 -81.45437431 41.42304993 C-81.45520138 40.0262098 -81.46119186 38.62936197 -81.47266769 37.23256874 C-81.48754502 35.32878429 -81.48222843 33.42487365 -81.47581482 31.52104187 C-81.4785802 30.45452739 -81.48134558 29.38801291 -81.48419476 28.2891798 C-81.11505127 25.65551758 -81.11505127 25.65551758 -79.78824329 23.88932514 C-77.12133128 21.92275098 -74.146668 20.65705306 -71.13067627 19.32739258 C-70.43802673 19.01529846 -69.7453772 18.70320435 -69.03173828 18.38165283 C-66.81233396 17.38316651 -64.58890158 16.39405647 -62.36505127 15.40551758 C-60.19560804 14.43404546 -58.02706575 13.46065628 -55.85987854 12.48416138 C-54.40099665 11.83153424 -52.93830294 11.18736954 -51.47215271 10.55123901 C-48.09140363 9.07206311 -44.9797579 7.57227403 -41.82720947 5.63256836 C-29.10488169 -1.84489741 -14.28078439 -0.24368716 0 0 Z " fill="#0ea5e9" transform="translate(325.11505126953125,459.344482421875)"/>
    <path d="M0 0 C7.643664 -0.06311282 15.28637054 -0.12319372 22.93006897 -0.15525055 C26.4904407 -0.17101645 30.0505941 -0.19204366 33.61083984 -0.22631836 C37.70672582 -0.26549776 41.80238474 -0.27977284 45.8984375 -0.29296875 C47.1592514 -0.30845261 48.42006531 -0.32393646 49.71908569 -0.33988953 C64.67884307 -0.34271319 75.82118366 4.28886594 86.703125 14.5625 C98.50305133 27.0848708 98.63635249 42.96044452 98.29296875 59.24609375 C97.66922099 75.37142081 92.20418959 90.9401745 80.25390625 102.1875 C68.10273579 111.95897849 54.53615762 114.64556926 39.3125 114.3125 C37.93035209 114.30097534 36.54818845 114.29120011 35.16601562 114.28320312 C25.16886475 114.16886475 25.16886475 114.16886475 24 113 C23.78167011 108.60001055 23.81420854 104.19465188 23.81469727 99.78979492 C23.81251249 97.57516218 23.79436469 95.36102877 23.77539062 93.14648438 C23.77245644 91.74479338 23.77047181 90.3431 23.76953125 88.94140625 C23.76542236 87.65951416 23.76131348 86.37762207 23.75708008 85.05688477 C24 82 24 82 26 80 C28.19555664 79.72875977 28.19555664 79.72875977 30.91015625 79.69140625 C31.90080078 79.66626953 32.89144531 79.64113281 33.91210938 79.61523438 C35.9849712 79.58053675 38.05789236 79.54919431 40.13085938 79.52148438 C47.2924823 79.33217004 54.3988166 78.92922345 60.15625 74.24609375 C60.5996875 73.64925781 61.043125 73.05242187 61.5 72.4375 C61.9640625 71.83808594 62.428125 71.23867188 62.90625 70.62109375 C65.98497899 66.05797757 65.26341806 61.09665917 65.3125 55.75 C65.34150391 54.71230469 65.37050781 53.67460938 65.40039062 52.60546875 C65.45209158 46.3774925 65.14568774 42.7468515 61 38 C60.505 37.4225 60.01 36.845 59.5 36.25 C56.02717706 33.35598089 53.05888147 32.7438161 48.58886719 32.68115234 C47.50804871 32.66128265 46.42723022 32.64141296 45.31365967 32.62094116 C44.15312073 32.60938995 42.99258179 32.59783875 41.796875 32.5859375 C40.60394836 32.56657135 39.41102173 32.5472052 38.1819458 32.5272522 C34.37136996 32.46746733 30.5607639 32.42107473 26.75 32.375 C24.16665348 32.33681928 21.58331968 32.2977675 19 32.2578125 C12.66673278 32.16012714 6.33360125 32.08054781 0 32 C0 21.44 0 10.88 0 0 Z " fill="#334155" transform="translate(299,460)"/>
    <path d="M0 0 C1.62974564 0.76074843 3.25366648 1.53398433 4.875 2.3125 C5.77992188 2.74175781 6.68484375 3.17101562 7.6171875 3.61328125 C10 5 10 5 12 8 C12.20914921 10.47964105 12.30404537 12.84868368 12.30639648 15.32958984 C12.31472 16.07302139 12.32304352 16.81645294 12.33161926 17.58241272 C12.35572997 20.04197414 12.36449259 22.50127041 12.37109375 24.9609375 C12.38005933 26.6710315 12.38918116 28.38112468 12.39845276 30.09121704 C12.41494824 33.67736722 12.42264387 37.26342397 12.42553711 40.84960938 C12.43092134 45.44215538 12.46859993 50.03382197 12.51428127 54.62611961 C12.54404234 58.1589172 12.55126045 61.69150278 12.55226326 65.22441483 C12.55646755 66.917304 12.56891031 68.6101937 12.58978081 70.30295944 C12.61667699 72.6731686 12.61187683 75.04133661 12.59936523 77.41162109 C12.61419952 78.10893845 12.62903381 78.8062558 12.64431763 79.52470398 C12.58487313 83.48473724 12.0774596 84.90920605 9.46253967 87.97427368 C8.64990158 88.64276337 7.83726349 89.31125305 7 90 C6.01 89.67 5.02 89.34 4 89 C4.495 88.01 4.495 88.01 5 87 C6.32 87 7.64 87 9 87 C9 60.6 9 34.2 9 7 C6.03 5.35 3.06 3.7 0 2 C0 1.34 0 0.68 0 0 Z " fill="#0369a1" transform="translate(281,515)"/>
    <path d="M0 0 C0.99 0.33 1.98 0.66 3 1 C2.67 1.66 2.34 2.32 2 3 C1.01 3.33 0.02 3.66 -1 4 C-1 51.52 -1 99.04 -1 148 C-1.66 148 -2.32 148 -3 148 C-3.07002839 129.14618537 -3.12295786 110.29239706 -3.15543652 91.43847942 C-3.17091661 82.68460942 -3.19202787 73.93082015 -3.22631836 65.17700195 C-3.25618584 57.54868209 -3.27556669 49.92042069 -3.28226548 42.29204398 C-3.28618226 38.25148873 -3.29541076 34.21110072 -3.31719017 30.17059898 C-3.33751356 26.36951431 -3.34384229 22.56866619 -3.33932304 18.76753235 C-3.34015011 17.37069222 -3.34614059 15.97384439 -3.35761642 14.57705116 C-3.37249375 12.67326671 -3.36717716 10.76935607 -3.36076355 8.86552429 C-3.36352893 7.79900981 -3.36629431 6.73249533 -3.36914349 5.63366222 C-2.9544247 2.67484204 -2.33183463 1.78883098 0 0 Z " fill="#0ea5e9" transform="translate(247,482)"/>
    <path d="M0 0 C0.99 0 1.98 0 3 0 C4.38226016 2.76452033 4.09525387 5.0461363 4.0625 8.125 C4.05347656 9.22070312 4.04445313 10.31640625 4.03515625 11.4453125 C4.02355469 12.28835938 4.01195312 13.13140625 4 14 C2.34385343 14.38218767 0.67542976 14.71395102 -1 15 C-2.80746134 13.19253866 -2.17303483 10.49554219 -2.1875 8.0625 C-2.20167969 6.98097656 -2.21585937 5.89945313 -2.23046875 4.78515625 C-2 2 -2 2 0 0 Z " fill="#075985" transform="translate(282,556)"/>
    <path d="M0 0 C0.99 0.33 1.98 0.66 3 1 C2.67 1.66 2.34 2.32 2 3 C1.01 3.33 0.02 3.66 -1 4 C-1.33 25.78 -1.66 47.56 -2 70 C-2.33 70 -2.66 70 -3 70 C-3.06947174 61.3161375 -3.1227967 52.63237046 -3.15543652 43.94829082 C-3.17110102 39.91602967 -3.1923533 35.88395847 -3.22631836 31.85180664 C-3.25888429 27.9614608 -3.27684711 24.0712978 -3.28463173 20.18082619 C-3.29018026 18.69562717 -3.30101511 17.2104383 -3.31719017 15.725317 C-3.33892851 13.64697928 -3.34196856 11.56939968 -3.34057617 9.4909668 C-3.34723801 8.30738083 -3.35389984 7.12379486 -3.36076355 5.90434265 C-3 3 -3 3 -1.47871399 1.09431458 C-0.99073837 0.73319077 -0.50276276 0.37206696 0 0 Z " fill="#0ea5e9" transform="translate(247,482)"/>
    <path d="M0 0 C0.66 0 1.32 0 2 0 C2 3.63 2 7.26 2 11 C1.01 11.33 0.02 11.66 -1 12 C-1.02687279 10.18757948 -1.04633715 8.37504767 -1.0625 6.5625 C-1.07410156 5.55316406 -1.08570313 4.54382813 -1.09765625 3.50390625 C-1 1 -1 1 0 0 Z " fill="#facc15" transform="translate(283,557)"/>
    <path d="M0 0 C0 1.98 0 3.96 0 6 C-0.33 5.01 -0.66 4.02 -1 3 C-2.051875 3.309375 -3.10375 3.61875 -4.1875 3.9375 C-7.12752396 4.75685094 -10.00161623 5.45483931 -13 6 C-9.79001231 2.03472109 -5.0381893 0 0 0 Z " fill="#38bdf8" transform="translate(298,460)"/>
    <path d="M0 0 C0.99 0.33 1.98 0.66 3 1 C2.67 1.66 2.34 2.32 2 3 C1.01 3.33 0.02 3.66 -1 4 C-1.33 9.61 -1.66 15.22 -2 21 C-2.33 21 -2.66 21 -3 21 C-3.08086376 18.06195004 -3.1404283 15.12611925 -3.1875 12.1875 C-3.21263672 11.35412109 -3.23777344 10.52074219 -3.26367188 9.66210938 C-3.27333984 8.85966797 -3.28300781 8.05722656 -3.29296875 7.23046875 C-3.3086792 6.49207764 -3.32438965 5.75368652 -3.34057617 4.99291992 C-2.91074167 2.47769478 -1.92536938 1.60558484 0 0 Z " fill="#38bdf8" transform="translate(247,482)"/>
    <path d="M0 0 C0.33 0 0.66 0 1 0 C1.1875 3.375 1.1875 3.375 1 7 C0.01 7.66 -0.98 8.32 -2 9 C-2.99 8.67 -3.98 8.34 -5 8 C-4.67 7.34 -4.34 6.68 -4 6 C-2.68 6 -1.36 6 0 6 C0 4.02 0 2.04 0 0 Z " fill="#38bdf8" transform="translate(290,596)"/>
  </g>
</svg>
