<?xml version="1.0" encoding="UTF-8"?><svg id="Layer_1" xmlns="http://www.w3.org/2000/svg" viewBox="0 0 729.04 265.47"><defs><style>.cls-1{fill:#182854;}.cls-2{fill:#efa333;}.cls-3{fill:#185679;}.cls-4{fill:#24959c;}</style></defs><path class="cls-1" d="M66.04,113.11c-.26,1.32-1.48,3.75-.86,4.83,9.43,3.1,13.28,22.71,22.42,24.11,3.09.47,6.14-.29,9.52.48,3.85.88,6.51,4.75,8.64,5.36,3.6,1.02,8.46-.67,12.28,1.23.18,1.13-.99.92-1,.99-6.74-.68-13.35.79-20,1l-18-2c-4.95-5.23-10.12-10.09-18.04-8.59-11.19,2.13-13.58,9.43-11.9,20.03,1.56,9.84,15.38,11.61,23.15,8.47,2.82-1.14,4.86-7.65,6.28-8.92,2.8-2.5,18.8-.19,23.52-.99.63,2.37-.37,3.4-1,5-.1.25-2.59.85,0,2,.25.11.66-.09,1,0v2s4-1,4-1l1.51-6.99c4.01-.62,3.67,3.37,3.49,6,1.89.58,2.72-.48,4-1.01.35-.15,1.48.39,1.85-.15.5-.73-.21-2.57.37-3.61.36-.65,3.38-1.39,4.34-3.3,1.05-2.09-.56-2.71-.56-2.94,0-.66.05-1.34,0-2-.01-.2.76-1.21-.01-1.99h5.02c.09-2.17-.13-4.38,0-6.56.11-1.92-1.05-4.01,2-3.45.04,24.19-.08,48.41.06,72.61.34,1.24-.72,1.79-1.06,2.39l-1,1-85,48v-66.5c-6.35-5.68-11.9,3.43-17.77.83-3.74-1.65-3.11-8.93,3.27-8.44,2.2.17,3.44,1.92,4.94,2,1.36.08,3.2-.98,5.02-.95,5.85.1,11.71.04,17.54.05v-3h-20.51c-2.61-2.13-1.23-5.99-1.5-9h8s0-17,0-17c-4.17.15-7.84,2.17-11.86-.14l-.16-7.28,13.01-.58-.44-3.05-8.56-.94v-6.43s9.01-.57,9.01-.57v-30.01c3.46,2.62,1.67,12.06,1.99,16.51.11,1.49-.78,2.89,1.49,2.48,3.65-1.72,5.93-7.88,7.78-9.73,3.34-3.34,12.06-2.27,8.74-10.26h5ZM65.89,188.26c-5.32-3.33-10.1,4.73-4.85,7.38,5.77,2.91,7.42-5.77,4.85-7.38Z"/><path class="cls-3" d="M111.04,66.11c-.18,3,2.82,3.06,5,4,.28.12.72-.12,1,0,1.5,2.22,5.43,4.06,8,5,.29.11.69-.1,1,0v3s2,0,2,0c.17,2.63-.05,5.35,0,8h-2s-.02,10.37-.02,10.37l2.02.63c.08,14.65-.02,29.35,0,44-3.05-.56-1.89,1.53-2,3.45-.12,2.17.09,4.39,0,6.55h-5.02c.77.79,0,1.8.01,1.99-.53-1.03-4.03-2.38-4-3,0-.07,1.17.15,1-.99-3.82-1.89-8.68-.21-12.28-1.23-2.13-.6-4.79-4.48-8.64-5.36-3.38-.77-6.42,0-9.52-.48-9.13-1.4-12.99-21.01-22.42-24.11-.62-1.08.6-3.51.86-4.83s1.33-2.3,1.02-4.42c-.83-5.64-9.23-4.59-8.02,2.42.07.43.92.77,1,1,.1.28.84.6,1,1,3.32,7.99-5.4,6.93-8.74,10.26-1.85,1.85-4.13,8.01-7.78,9.73-2.26.42-1.38-.99-1.49-2.48-.33-4.46,1.46-13.9-2-16.51-1.92-1.45-10.79-1.44-13.55-1.05-3.69.52-11.09,5.98-10.54-2.46s7.32-1.86,10.55-1.44c8.36,1.08,18.93-.88,27.55-.05l-1.64-4.85-12.36-.14V27.11c23.54,12.56,46.38,26.61,70,39Z"/><path class="cls-4" d="M237.04,116.11c-1.94.45-1.92-.71-2.82-1.68-1.94-2.13-11.15-13.36-12.68-13.36l-14.5,15.04v-27.5c0-2.43-3.68-14.22-4.82-17.18-16.98-43.96-75.01-56-108.82-23.48l-26.32-13.89c-1.45-2.12,6.11-8.82,7.95-10.47C126.81-22.61,214.77,2.41,233.31,69.35c.98,3.54,3.74,14.28,3.74,17.26v29.5Z"/><path class="cls-2" d="M207.04,137.11c-2.48-.12-5.04.18-7.52,0-1.49-.11-2.89.77-2.47-1.49l23.6-26.47,24.37,26.47c.86,2.91-7.34.93-8.99,1.48v127h-29v-127Z"/><path class="cls-4" d="M67.04,264.11l77.71-48.28c6.72-15.43,8.32-32.35,11.28-48.71-8.3.04-4.17,15.04-11.99,14.99-1.98-12.81,5.24-23.86,18.45-25.04,3.6-.32,11.6,1.15,13.58.62,2.48-.66,3.76-3.61,5.4-4.63,9.22-5.69.54,7.47-2.38,9.62s-5.87,1.48-8.6,3.4l-2.34,12.91c11.1,3.58,10,8.76,5.88,18.12,1.18,1.16,11.83-6.93,9.99-2.51-.76,1.82-4.95,3.81-6.53,5.47-3.98,4.17-7.99,9.79-11.95,14.05-15.57,16.74-31.49,33.23-47.01,49.99h-51.5ZM154.05,210.11c9.38-4.2,13.43-9.49,15.91-19.4-1.58-1.62-5.38-5.2-7.41-2.59l-8.5,21.99Z"/><path class="cls-4" d="M712.04,161.11v-38h15v66l-12.55-.95c-10.68-10.89-19.09-24.49-29.16-35.77-.59-.67.08-1.91-2.29-1.28v38h-15v-66l13.56.94,30.44,37.06Z"/><path class="cls-4" d="M532.04,189.11l29.46-66.07,15.43.18,28.11,65.88h-15.5l-7.13-13.87-29.48.46-5.39,13.41h-15.5ZM578.04,163.11l-9.5-24.01-9.5,24.01h19Z"/><path class="cls-1" d="M290.04,171.11v18h-15v-66h36.5c.42,0,6.82,2.64,7.82,3.18,16.24,8.64,15.27,34.65-1.8,41.84-1.97.83-9.34,2.98-11.02,2.98h-16.5ZM290.04,158.11h15.5c.38,0,6.23-2.64,6.87-3.13,3.62-2.82,3.49-10.39,1.51-14.24-3.52-6.82-17.4-5.43-23.87-5.63v23Z"/><path class="cls-4" d="M656.92,127.24l-4,11.75c-1.86,1.18-10.28-3.37-13.46-3.79-5.8-.78-21.37.49-15.48,9.49,5.2,7.94,35.07,2.23,36.1,23.88,1.28,26.75-37.84,25.27-53.91,14.42-1.38-2.15,3.29-9.6,4.51-11.96,6.72,1.32,11.71,5.41,18.87,6.07,5.83.53,16.92.18,14.31-8.29-2.3-7.46-33.58-4.68-36.57-22.43-4.49-26.73,32.92-29.15,49.63-19.14Z"/><path class="cls-4" d="M154.04,264.11c-1.45-1.4,15.32-32.32,17.18-36.32,2.15-4.62,15.82-33.25,15.82-35.18v-17.5l-3.49,1.02-.5-2c3.63-.11,4.02-8.01,8.28-6.91,1.32.34,5.26,5.37,5.56,6.64.57,2.35-1.86,3.52-1.86,3.75v85l-1.5,1.5h-39.5Z"/><path class="cls-2" d="M141.03,74.12c-.79,3.97,10.63,15.08,13.01,13-.29-6.09,6.01-9,11.46-7.99,5.55,1.03,2.28,9.91,7.01,10,3.16.06,15.92-9.09,14.55-14.01,4.05-3.44,6.66,11.14,6.86,13.62.52,6.24-1.06,14.44-5.82,18.93-2.8,2.64-11.57,5-11.95,5.54-.7,1-.17,4.29,1.52,4.84,4.23,1.38,6.62-7.08,9.42.58-.85,5.05-7.98,6.25-10.01,8.02-1.19,1.04-1.01,3.34-1.97,4.03-.71.5-15.83.66-17.33.25-.8-.22-1.71-.9-1.71-1.79,2.49-.09,5.01.1,7.51-.01,1.21-.05,3.72.76,3.48-.99-3.31-.35-7.24.51-10.44-.07-.87-.16-8.67-2.75-9.8-3.2s-6.36-5.38-6.74-6.26c-.8-1.86,3.31-2.63,4.47-2.51,1.76.18,7.29,6.93,7.61-1.48.09-2.28-5.3-3.08-6.98-4.11-10.07-6.18-11.47-18.88-8.89-29.66.23-.94,3.08-8.3,4.76-6.72ZM169.04,105.11l5.02-.58-.47-9.47c-2.96-1.59-7.48-.42-9.54,2.05-1.01,1.21-1.41,2.84-2.45,4.04-1.34,1.55-3.4,2.52-4.55,3.96-.16.2-.81.2-.92.68-.69,2.89,9.32,17.59,7.92,5.32,3.15-.12,3.1-1.83,4-4,.09-.22,1.5-.64,1-2ZM154.05,124.11c3.83-.2,5.32-4.79,4.98-7.99-2.83,1.58-5.25,4.58-4.98,7.99ZM175.04,123.11c1.04-.92-3.29-6.74-4.98-6.99l1.11,6.88,3.88.12ZM172.04,125.11h-16c-1.05,3.2,6.53,2.15,8.55,2.05,1.85-.09,6.66-.03,7.45-2.05Z"/><path class="cls-1" d="M415.04,189.11h-15v-31.5c0-.56-2.7-4.74-3.61-5.38-7.72-5.47-17.39,1.71-17.39,10.38v26.5h-15v-51h14v5c8.97-8.56,26.06-8.69,33.44,2.06.71,1.04,3.56,6.77,3.56,7.44v36.5Z"/><path class="cls-1" d="M479.04,138.11v31.5c0,.8,2.95,5.16,4.24,5.76,7.31,3.41,15.76-2.22,15.76-9.76v-27.5h15v51h-15v-4c-9.14,7.23-23.76,7.18-30.99-2.51-.9-1.21-4.01-7.05-4.01-7.99v-36.5h15Z"/><path class="cls-1" d="M443.04,126.11v13.01s12.01-.01,12.01-.01v11.43s-12.01.58-12.01.58v22.5c0,4.69,8.79,3.86,11.98,2.5l2.92,10.35c-4.94,4.65-15.84,4.83-21.6,1.86-2.82-1.46-8.3-7.69-8.3-10.7v-26.5h-8.01s-.01-11.42-.01-11.42l8.02-.57v-13.01s14.99,0,14.99,0Z"/><path class="cls-2" d="M729.04,232.11h-8v-18.5c0-4.9-11-4.37-11,1v17.5h-7v-15.5c0-9.88-12-7.01-12,0v15.5h-7v-28c1.98.26,4.53-.46,6.34,0,.79.2.59,2.04,1.16,2.04,1.4-.02,2.95-1.89,4.66-2.38,7.58-2.19,10.16,3.38,12.15,3.2,1.58-.14,5.12-2.97,7.66-3.45,6.17-1.17,13.03,3.7,13.03,10.1v18.5Z"/><rect class="cls-1" x="339.04" y="138.11" width="14" height="51"/><path class="cls-2" d="M661.83,203.35c24.3-2.62,21.87,35.47-3.5,27.98-14.34-4.23-12.32-26.28,3.5-27.98ZM668.89,211.3c-1.2-1.99-9.71-1.99-11.32,1.83-5.93,14.13,14.82,16.92,13.58,3.44-.15-1.68-1.48-1.16-2.05-2.25-.35-.67.24-2.27-.22-3.02Z"/><path class="cls-2" d="M629.3,223.85c3.25,3.06,9.11.84,12.07-1.6,1.72.75,5.48,2.4,4.23,4.86-4.93,7.17-17.83,6.56-23.01-.03-10.9-13.89,7.25-30.52,20.41-21.41,3.89,2.69,3.71,5.85-.93,7.07-2.7.71-2.77-1.8-4.72-2.43-8.78-2.8-13.47,8.45-8.05,13.54Z"/><path class="cls-2" d="M160.04,232.12c2.43,2.51-13.54,26.77-15.42,31.07-2.16,2.77-15.53,3.7-14.16-1.14.35-1.23,8.34-9.95,10.08-11.94,3.63-4.17,11.54-13.65,15.47-16.53,1.37-1,2.02-1.89,4.04-1.45Z"/><path class="cls-1" d="M343.78,115.34c15.9-3.24,15.16,20.49-.76,16.29-8.63-2.27-8.19-14.47.76-16.29Z"/><path class="cls-4" d="M159.32,142.4c7.22-7.21,16.56,5.25,9.69,11.18s-16.39-4.5-9.69-11.18Z"/><rect class="cls-3" x="15.04" y="131.11" width="10.01" height="10.01"/><path class="cls-2" d="M609.76,222.29c8.62-2.55,8.62,12.21,0,9.66-3.84-1.13-3.84-8.53,0-9.66Z"/><path class="cls-3" d="M23.05,155.11v8.01l-7.07-.44c-1.5-1.04-1.2-4.93-.5-6.63l7.56-.94Z"/><path class="cls-4" d="M2.75,161.31c9.16-2.76,7.56,8.79.85,7.82-4.41-.64-4.86-6.61-.85-7.82Z"/><rect class="cls-3" x="20.04" y="144.11" width="7.01" height="7.01"/><polygon class="cls-3" points="35.05 168.11 35.05 175.12 28.98 174.68 28.04 168.11 35.05 168.11"/><path class="cls-3" d="M38.05,127.12h-7.01l.93-6.57c5.99-1.94,6.63,1.28,6.08,6.57Z"/><path class="cls-2" d="M165.9,224.27l.15,5.85-6.58-.93-.27-3.37c1.39-3.19,3.91-3.06,6.69-1.55Z"/><path class="cls-4" d="M184.11,150.05c-1.83-4.61.34-10.76,5.46-5.95,2.17,3.48-1.85,7.05-5.46,5.95Z"/><polygon class="cls-3" points="21.04 181.11 21.04 187.12 15.47 186.19 15.47 182.04 21.04 181.11"/><rect class="cls-3" x="2.04" y="136.11" width="6.01" height="5.01"/><path class="cls-4" d="M128.04,86.11c.07,3.66-.02,7.34,0,11l-2.02-.63.02-10.38h2Z"/><path class="cls-4" d="M111.04,66.11c2.09,1.1,5.61,1.54,5,4-2.18-.94-5.18-1-5-4Z"/><path class="cls-4" d="M126.04,75.11c.5.16,1.37-.14,2,0,.08.99-.06,2.01,0,3h-2s0-3,0-3Z"/><path class="cls-4" d="M125.04,75.11c-2.57-.94-6.5-2.78-8-5,2.86,1.26,6.65,2.15,8,5Z"/><path class="cls-2" d="M154.54,129.11c.65.33.65.67,0,1v-1Z"/><path class="cls-4" d="M126.04,217.11l1-1c-.21.37-.7.66-1,1Z"/><path class="cls-2" d="M101.04,164.11c.63-1.6,1.63-2.63,1-5-4.72.8-20.72-1.51-23.52.99-1.42,1.27-3.47,7.78-6.28,8.92-7.77,3.14-21.59,1.37-23.15-8.47-1.67-10.6.71-17.9,11.9-20.03,7.93-1.51,13.09,3.35,18.04,8.59.16.17-.54,1.81.63,2.04,5.78-.19,11.6.14,17.37-.04,6.65-.21,13.26-1.68,20-1-.03.62,3.47,1.97,4,3,.05.66,0,1.34,0,2-.82,5.34-7.86,2.76-6,10-1.27.53-2.11,1.58-4,1.01.17-2.63.52-6.62-3.49-6l-1.51,6.99c-1.2-1.02-2.77-.68-4-1-.34-.09-.75.11-1,0v-2ZM63.87,158.95c4.84-7.85-11.86-12.43-9.85-1.36.86,4.75,8.62,3.37,9.85,1.36Z"/><path class="cls-3" d="M121.04,155.11c0,.23,1.61.85.56,2.94-.96,1.91-3.98,2.65-4.34,3.3-.58,1.04.13,2.88-.37,3.61-.37.54-1.5,0-1.85.15-1.86-7.24,5.18-4.66,6-10Z"/><path class="cls-3" d="M97.04,151.11c-5.77.18-11.59-.15-17.37.04-1.17-.23-.47-1.87-.63-2.04l18,2Z"/><path class="cls-3" d="M106.04,167.11l-4,1v-2c1.23.32,2.8-.02,4,1Z"/><path class="cls-3" d="M101.04,166.11c-2.59-1.15-.1-1.75,0-2v2Z"/><path class="cls-1" d="M60.04,112.11c-.08-.23-.93-.57-1-1l1,1Z"/><path class="cls-3" d="M164.04,97.11l.13,3.92,2.74.17c.75.83-1.13,4.64,2.13,3.91.5,1.36-.91,1.78-1,2-1.53-1.25-3.64.26-5,0-1.63-.31-3.68-2.56-6-2,1.15-1.45,3.21-2.41,4.55-3.96,1.04-1.2,1.44-2.83,2.45-4.04Z"/><path class="cls-1" d="M168.04,107.11c-.9,2.17-.85,3.88-4,4-.11-.96-1.39-2.56-1-4,1.36.26,3.47-1.25,5,0Z"/><path class="cls-1" d="M63.87,158.95c-1.24,2.01-8.99,3.39-9.85-1.36-2.01-11.07,14.69-6.49,9.85,1.36Z"/><path class="cls-4" d="M172.04,97.12c.45,3.02-.87,4.45-3.99,3.98l1.09-3.91,2.91-.07Z"/></svg>