<?xml version="1.0" encoding="UTF-8"?><svg id="Layer_1" xmlns="http://www.w3.org/2000/svg" viewBox="0 0 388.31 417.23"><defs><style>.cls-1{fill:#eea32f;}.cls-2{fill:#26a1ac;}.cls-3{fill:#183f65;}</style></defs><path class="cls-3" d="M50.22,235.04c-.1-2.21-.59-10.52.94-11.55,1.76-1.17,9.8-.64,12.05.56.09-1.61-.91-2.81-1.04-4.45-1.05-14.01,2.27-28.01,1.09-42.05-.09-1.02-.44-3.45-1.55-3.45h-22c-.51,0-4.67,3.52-7.24,3.82-9.37,1.07-11.66-13.63-2.7-14.79,5.83-.75,7.3,3.45,8.89,3.63.77.09,2.54-.71,4-.7,12.1.04,25.16-.63,37.1,0,1.73.09,2.91.16,4.45,1.05v-6s-20.99-1-20.99-1V39.23l136.83,75.09.12,206.19c.65,3.85,2.48,16.48.05,18.93-16.05,9.25-32.3,18.18-48.32,27.47-19.92,11.56-41.19,22.91-61,34.97-5.53,3.37-13.15,9.33-18.4,11.95-1.51.76-9.46,3.85-10.28,3.03l1-107.89h-16.5c-.85,0-2.3,4.79-7.95,3.98-11.43-1.64-7.12-17.74,2.5-14.54,1.79.59,4.16,3.57,4.45,3.57h38.5v-6.99h-34v-13.99h13v-25.97l-20-1c.13-3.64-.17-7.35,0-10.99,3.56-.57,19.15,1.17,20.56-.94l.44-7.06h-14ZM94.89,161.29c-7.39,2.22-2.74,15.62,4.35,13.4,9.25-2.89,5.98-16.5-4.35-13.4ZM124.72,248.03h33.5v10.99s9,0,9,0v-10s5.42-.05,5.42-.05c2.85,4-.91,13.24,6.97,10.94,3.12-.91.66-8.33,2.04-10.95,1.24-1.79,8.11.36,9.39-5.64s-3.15-8.56-8.29-9.32l-58.92.09c-7.46-19.46-34.88-22.51-45.46-4.39-13.02,22.3,15.25,47.44,35.79,32.76,5.22-3.73,7.84-8.86,10.55-14.44ZM92.83,304.32c2.61,2.89,2.84,3.54,7.69,2.45,6.8-1.52,6.1-12.09,1.02-13.61-7.46-2.22-11.86,3.03-10.34,10.18.16.76,1.27.57,1.63.97Z"/><path class="cls-2" d="M372.22,181.09c-1.71.42-1.99-.66-3-1.49-6.91-5.76-12.97-15.07-19.45-21.52l-3-1.01-14,17.09-7.54,6.95c-.25-6.81.3-13.71.04-20.53-1.05-27.43-5.7-52.36-24.06-73.87-34.8-40.79-93.09-53.39-139.33-23.32-5.72,3.72-10.73,10.09-17.1,11.84l-40.55-23.48c16.3-19.17,37.69-34.03,61.47-42.49,68.91-24.51,142.66,1.02,182.35,61.64,21.53,32.89,25.64,71.61,24.17,110.21Z"/><path class="cls-2" d="M106.22,415.86c-.54-2.37.41-1.61,1.28-2.24,4.71-3.4,10.77-6.99,15.79-10.18,34.86-22.18,70.16-43.71,105-65.94,8.59-24.65,12.34-50.38,16.94-75.98-1.31-1.15-5.66,1.6-6.48,2.51-3.53,3.9-4.94,19.79-8.15,20.83-3.93,1.26-5.66-.49-5.42-4.36.25-3.96,2.83-18.41,4.6-21.43,1.98-3.38,13.3-11.48,17.18-12.81,9.27-3.17,20.61.29,29.75-1.25,5.16-.87,8-8.75,13.99-9.01,1.54-.07,1.77-.14,1.54,1.54-.3,2.17-8.15,14.25-10.06,15.93-3.9,3.42-9.42,1.68-13.47,4.53l-5.47,20.91c3.69,2.23,8.91,3.91,12.32,6.22,8.02,5.42-1.41,15.85-1.38,23.31,0,1.29-.14,2.01,1.52,1.5,4.82-1.48,12.91-9.79,18.53-11.46l.84-1.15c.96-7.56-1.54-14.77-.89-22.32-1.93.02-3.74.26-4.97-1.52,3.38-2.96,5.81-8.05,8.95-11.02,1.01-.96,1.49-1.98,3.04-1.02.8.5,9.73,11.21,9.98,12.05.85,2.86-4.41.9-4.99,1.48-.19,5.14.26,10.36.02,15.51-1.41,30.23-.49,60.7-1.07,90.84-.22,11.49.26,23.03.05,34.51h-64l51.18-109.21c.13-.66,3.49-6.74.32-5.68-.82.27-.66,1.6-1.46,2.5-17.29,19.24-35.72,37.79-53.52,56.47-17.73,18.61-36.09,36.55-53.02,55.92h-78.5ZM241.22,328.94c1.55.34,2.34-.3,3.56-.94,2.02-1.06,16.38-10.21,16.93-11.06l5.33-20.51-11.82-4.46-14,36.96Z"/><path class="cls-1" d="M388.22,214.06h-14.5l-1.5,1.5v200.3h-47c.4-1.03-1-2.22-1-2.5v-198.31c-4.4-1.54-8.91-.91-13.51-1-1.52-.03-2.89.72-2.49-1.49l37.98-42.98c3.06-1.58,4.59.38,6.53,2.49,6.53,7.09,12.55,14.82,18.96,22.02,4.04,4.54,12.58,11.94,15.57,16.42.84,1.26,1.24,1.92.96,3.54Z"/><path class="cls-1" d="M251.22,198.08c-.08-.21.17-.77-.07-.89-6.4-1.15-19.37-.93-19.93-9.1l-3.41,1.98c-1.47-1.35-6.91-7.52-5.58-8.97l2.99,1.01.5-3c10.89,12.36,15.41,3.51,16.5-8.99-2.45-.21-5.13.28-7.53.03-5.34-.56-14.76-8.05-17.23-12.76-6.14-11.69-5.31-26.9-1.77-39.26.75-2.63,2.08-6.62,4.53-7.96-1.56,8.77,5.9,15.6,12.66,19.82,2.83,1.77,6.61,2.79,9.29,4.7,1.35.96,3.72,4.19,4.65,4.39,2.38.52,3.15-3.53,3.96-4.87.96-1.58,4.69-3.65.91-4.03-1.94-.19-3.63-.45-5.47-1.04l3.99-2.49-5-.5c1.35-1.4,3.24-5.3,4.67-5.81,4.54-1.64,8.87.67,13.33-1.17.17,2.7-.37,5.64.2,8.29.36,1.67,1.84,3.1,2.34,4.71.43,1.4.83,8.66,3.95,7.98,5.44-8.87,16.75-9,23.03-16.95,3.1-3.92,2.82-5.62,3.96-10.04.24-.93.26-2.26,1.51-1.97,9.2,18.93,9.56,47.13-11.66,57.78-4.68,2.35-7.27,2.51-12.33,1.17,1.17,4.05.89,8.64,3.13,12.34s2.66,1.85,5.39,1.81c.87-.01,2.28.87,2.38.76.24-.26.34-1.6,1.06-2.43,1.38-1.6,3.13-2.91,4.54-4.49l.52,2.96c8.41-2.09.15,6.53-2.04,7.59-1.48.71-2.57-.59-3.96-.57-1.95,9.34-5.39,2.31-11.03,2,3.45-6.94-3.43-8.3-7.99-11.98-.67,5.13,1.66,9.65,3.99,13.98-7.59.33-14.4,1.93-22,0-.5-.41,2.76-10.59,3-12.5.42-3.24-3.31-.41-4.5.51-3.21,2.48-6.39,5.62-5.54,9.96l-2.96,1.03c6.19,2.04,12.3,4.29,19,4.01v2.99c-2,.03-4.01-.02-6.01,0,.13.33-.31,1.03.55,1.04,6.17-.04,12.32.33,18.33-1.18.26-.14.03-.66.11-.86-4.34-.24-7.8.93-12,1v-2.99c6.8,2.18,12.34-3.42,19-2.99,1.06,4.49-3.69,3.75-6.92,4.1-.25.12.01.68-.08.89.58.03,1.42-.26,1.84.12l2.15,5.87-3.45-1.07-1.12,2.11c-2.51-1.68-7.65.32-9.71-.21-.88-.23-1.65-1.56-2.21-1.56-.42,0-1.44,1.36-2.98,1.63-1.04.18-12-.57-12.53-.9.02-5.76,4.74-4.94,9-4.99ZM258.22,154.12c-1.66-.03-3.34.02-5,0v-4.01s-6,.01-6,.01c1.74,2.53,3.55,4.59,3,7.99-.11.02-.6.81-1.51.97-2.19.38-5.21-1.25-4.48,2.02,1.69.14,3.77-.36,5.36.14,2.69.85,5.95,12.84,3.63,15.84l5,1c-.51-2.28.71-8.47,0-9.99,5.37-.49,4.61-6.7,8-8.99,2.66.06,5.35-.04,8,0l-1-15.99c-3.61.8-14.39-2.13-15.02,2.49-.36,2.64.26,5.78.01,8.51Z"/><path class="cls-1" d="M205.72,416.86c-.47-.13-1.81-1.56-1.4-2.38,3.34-3.98,6.84-9.56,10.2-13.3,1.58-1.76,5.1-3.93,7.22-6.27,8.13-8.96,17.06-21.32,25.97-29,1.73-1.49,5.6-4.1,4.34.34-1.11,3.94-6.13,12.52-8.31,16.68-4.83,9.21-10.17,19.74-15.35,28.62-.89,1.52-2.86,5.32-4.68,5.32-4.16,0-14.94.83-18,0Z"/><path class="cls-2" d="M253.91,219.25c10.59-2.36,17.91,6,13.82,15.81-5.24,12.55-24.89,4.64-20.07-10.06.73-2.23,3.94-5.22,6.25-5.74Z"/><rect class="cls-3" x="21.22" y="203.07" width="16" height="14.99"/><path class="cls-3" d="M35.22,253.03l-11.06-.44c-2.62-7.38-1.41-13.09,7.56-11.54,5.31.91,3.12,8.03,3.5,11.98Z"/><path class="cls-3" d="M10.11,219.95c-11.01,1.43-10.38-.99-9.9-10.89,10.39-.91,13.38.03,9.9,10.89Z"/><path class="cls-3" d="M31.22,225.05c7.36.13,12.66-2.27,11,7.49-.54,3.17-2.7,3.44-5.46,3.55-8.42.34-4.9-4.77-5.53-11.05Z"/><path class="cls-3" d="M23.22,293.99c-.9-9.68-3.08-12.75,9.06-10.55,3.13,9.63.64,11.72-9.06,10.55Z"/><path class="cls-1" d="M252.33,362.81c-3.28-5.27.15-14.75,6.9-11.38,7.42,3.71,1.07,14.23-6.9,11.38Z"/><rect class="cls-3" x="48.22" y="186.08" width="9.01" height="10"/><path class="cls-2" d="M295.22,233.04l2,2c-2.38.79-3.74-1.93-5.45-1.97-1.38-.04-2.89,1.41-4.55.97,3.48-2.76.3-9.53,4.67-10.82,6.58-1.94,8.3,6.16,3.33,9.82Z"/><path class="cls-2" d="M10.22,252.02v9c-2.27-.35-8.33.91-9.56-.94-2.42-9.29,2.03-8.37,9.56-8.06Z"/><polygon class="cls-3" points="53.15 263.08 53.22 272.01 44.22 272.01 44.22 262.01 53.15 263.08"/><path class="cls-2" d="M50.22,235.04h14s-.44,7.05-.44,7.05c-1.41,2.11-17,.37-20.56.94.03-.66-.04-1.34,0-2h19.01s0-3.99,0-3.99h-12.01c-.03-.66.04-1.34,0-2Z"/><path class="cls-1" d="M124.72,248.03c-2.71,5.58-5.33,10.71-10.55,14.44-20.54,14.68-48.82-10.46-35.79-32.76,10.58-18.12,38-15.07,45.46,4.39l58.92-.09c5.14.75,9.52,3.55,8.29,9.32s-8.15,3.85-9.39,5.64c-1.38,2.61,1.08,10.04-2.04,10.95-7.88,2.3-4.13-6.93-6.97-10.94l-5.43.05v10s-9,0-9,0v-10.99s-33.5,0-33.5,0ZM87.45,236.27c-3.7,3.69-2.71,11.52,2.71,13.3,10.53,3.47,15.51-10.27,5.79-14.77-2.49-1.16-6.65-.38-8.5,1.47Z"/><path class="cls-3" d="M250.22,158.12c.55-3.4-1.26-5.45-3-7.99h6s0,4,0,4c1.66.01,3.34-.03,5,0,2.33.04,4.68-.03,7,0l-2,4.99c.99.03,2-.02,3,0-3.39,2.29-2.63,8.5-8,8.99-.07-.16-2.22-.86-2.95-1.53-2.42-2.21-2.15-5.43-2.05-8.47-.97.11-2.09-.15-3,0ZM255.22,163.11c2.16.71,7.52-.68,6.95-3.39-1.01-4.79-8.78-2.04-6.95,3.39Z"/><path class="cls-3" d="M87.45,236.27c1.85-1.84,6.01-2.62,8.5-1.47,9.72,4.51,4.73,18.24-5.79,14.77-5.42-1.79-6.4-9.62-2.71-13.3Z"/><path class="cls-2" d="M262.33,147.23l7.25.03c6.65,6.25-12.14,7.68-7.25-.03Z"/><path class="cls-1" d="M255.22,163.11c-1.83-5.43,5.94-8.19,6.95-3.39.57,2.71-4.79,4.1-6.95,3.39Z"/></svg>