<svg version="1.1" xmlns="http://www.w3.org/2000/svg" viewBox="190 420 1170 340" width="585" height="170">
<path d="M0 0 C26.21064302 0 26.21064302 0 33.109375 5.76171875 C38.41511364 11.98964529 43.06495243 18.62868353 47.73046875 25.33984375 C51.05019545 30.10109677 54.48162396 34.77450645 57.9375 39.4375 C63.04263511 46.33258372 68.0924958 53.26395319 73.10302734 60.22802734 C77.62193727 66.49919558 82.20977347 72.71781439 86.81567383 78.92529297 C89.74928986 82.89306734 92.63515118 86.88504832 95.4453125 90.94140625 C95.99179443 91.72894287 96.53827637 92.51647949 97.10131836 93.32788086 C98.13520658 94.82516488 99.16241414 96.32709085 100.18188477 97.83422852 C102.82638663 101.856435 102.82638663 101.856435 107 104 C107 69.68 107 35.36 107 0 C118.55 0 130.1 0 142 0 C142 57.09 142 114.18 142 173 C113.36208959 173 113.36208959 173 106.99707031 167.16333008 C106.52881836 166.53837646 106.06056641 165.91342285 105.578125 165.26953125 C105.03406006 164.55796875 104.48999512 163.84640625 103.92944336 163.11328125 C103.37522705 162.35402344 102.82101074 161.59476563 102.25 160.8125 C101.65002197 160.01585937 101.05004395 159.21921875 100.43188477 158.3984375 C95.48594952 151.78732068 90.71082346 145.05194008 85.9921875 138.27734375 C82.89736626 133.83708111 79.7369619 129.44605493 76.5625 125.0625 C76.02375244 124.31830811 75.48500488 123.57411621 74.92993164 122.80737305 C73.83680204 121.2978597 72.7434582 119.78850146 71.64990234 118.27929688 C69.98915323 115.98501548 68.3318875 113.68825963 66.67578125 111.390625 C61.55491584 104.28666085 56.42490413 97.18973422 51.25 90.125 C50.80664307 89.51930176 50.36328613 88.91360352 49.90649414 88.28955078 C47.73458471 85.33111454 45.54352592 82.38980057 43.31640625 79.47265625 C42.89391602 78.91755371 42.47142578 78.36245117 42.03613281 77.79052734 C40.88918297 76.28795897 39.73583199 74.79028285 38.58203125 73.29296875 C37 71 37 71 37 69 C36.34 69 35.68 69 35 69 C35 103.32 35 137.64 35 173 C23.45 173 11.9 173 0 173 C0 115.91 0 58.82 0 0 Z " fill="#FAC015" transform="translate(1220,430)"/>
<path d="M0 0 C2.93578406 0.04077138 5.87109769 0.04408484 8.80712605 0.04643822 C11.66509503 0.05116881 14.5227604 0.07202883 17.3806057 0.09831619 C19.38000605 0.11596325 21.37946804 0.12612785 23.37892151 0.13607788 C38.42248896 0.40916247 49.6146437 4.85800911 60.58807373 15.21801758 C72.38800006 27.74038838 72.52130122 43.61596209 72.17791748 59.90161133 C71.55416972 76.02693839 66.08913832 91.59569208 54.13885498 102.84301758 C41.98768453 112.61449607 28.42110635 115.30108684 13.19744873 114.96801758 C11.81530082 114.95649292 10.43313718 114.94671769 9.05096436 114.9387207 C-0.94618652 114.82438233 -0.94618652 114.82438233 -2.11505127 113.65551758 C-2.33338116 109.25552813 -2.30084273 104.85016946 -2.300354 100.4453125 C-2.30253878 98.23067975 -2.32068658 96.01654634 -2.33966064 93.80200195 C-2.34259483 92.40031096 -2.34457946 90.99861758 -2.34552002 89.59692383 C-2.34962891 88.31503174 -2.35373779 87.03313965 -2.35797119 85.71240234 C-2.11505127 82.65551758 -2.11505127 82.65551758 -0.11505127 80.65551758 C2.08050537 80.38427734 2.08050537 80.38427734 4.79510498 80.34692383 C5.78574951 80.32178711 6.77639404 80.29665039 7.79705811 80.27075195 C9.86991993 80.23605433 11.94284109 80.20471189 14.01580811 80.17700195 C21.17743103 79.98768761 28.28376533 79.58474103 34.04119873 74.90161133 C34.48463623 74.30477539 34.92807373 73.70793945 35.38494873 73.09301758 C35.84901123 72.49360352 36.31307373 71.89418945 36.79119873 71.27661133 C39.86992772 66.71349514 39.14836679 61.75217675 39.19744873 56.40551758 C39.22645264 55.36782227 39.25545654 54.33012695 39.28533936 53.26098633 C39.33704031 47.03301007 39.03063647 43.40236907 34.88494873 38.65551758 C34.38994873 38.07801758 33.89494873 37.50051758 33.38494873 36.90551758 C29.96147092 34.0526194 27.01134273 33.3967351 22.60418701 33.31738281 C21.54853546 33.29494003 20.49288391 33.27249725 19.40524292 33.24937439 C18.26674896 33.23773758 17.128255 33.22610077 15.95526123 33.21411133 C14.77334198 33.20033951 13.59142273 33.18656769 12.37368774 33.17237854 C9.86707235 33.14909444 7.36039488 33.13183522 4.85369873 33.12011719 C1.0582376 33.09335803 -2.73436245 33.01849233 -6.52911377 32.94262695 C-19.8972691 32.79838296 -29.88997206 33.01532939 -41.11505127 40.65551758 C-42.57829158 41.41986293 -44.05330362 42.16260628 -45.54473877 42.87036133 C-46.68169189 43.43883789 -47.81864502 44.00731445 -48.99005127 44.59301758 C-51.03171794 45.61385091 -53.0733846 46.63468424 -55.11505127 47.65551758 C-52.94880926 49.05201348 -50.78204745 50.44769283 -48.61505127 51.84301758 C-47.97736816 52.25430908 -47.33968506 52.66560059 -46.68267822 53.08935547 C-43.24750986 55.30082415 -39.79529282 57.47310863 -36.30255127 59.59301758 C-33.11505127 61.65551758 -33.11505127 61.65551758 -32.11505127 63.65551758 C-31.99634617 66.06978816 -31.93677611 68.45616143 -31.92218018 70.87158203 C-31.90991394 71.98651031 -31.90991394 71.98651031 -31.8973999 73.1239624 C-31.87254499 75.58889966 -31.85602973 78.05377932 -31.84161377 80.51879883 C-31.83629009 81.36023123 -31.83096642 82.20166363 -31.82548141 83.06859398 C-31.79874939 87.52228256 -31.7793747 91.9759431 -31.76495361 96.4296875 C-31.74830545 101.03006242 -31.70352703 105.62972097 -31.65258217 110.22982502 C-31.61892721 113.76688968 -31.60737816 117.30378394 -31.60172653 120.84099388 C-31.59500915 122.53668887 -31.57977431 124.23237245 -31.55583572 125.92791176 C-31.52421683 128.30295822 -31.52414146 130.67606788 -31.53155518 133.05126953 C-31.51514984 133.75015793 -31.49874451 134.44904633 -31.48184204 135.16911316 C-31.53081673 139.00698573 -32.016589 140.53654501 -34.49697876 143.53361511 C-36.99110992 145.55506526 -39.32270908 147.07510784 -42.17755127 148.53051758 C-49.61963168 152.43735871 -57.12377623 156.3809803 -63.92755127 161.34301758 C-67.23571651 163.74305903 -70.54519468 165.67226392 -74.11505127 167.65551758 C-75.04317627 168.23301758 -75.97130127 168.81051758 -76.92755127 169.40551758 C-79.11505127 170.65551758 -79.11505127 170.65551758 -81.11505127 170.65551758 C-81.18507966 151.80170295 -81.23800913 132.94791464 -81.27048779 114.093997 C-81.28596788 105.340127 -81.30707914 96.58633772 -81.34136963 87.83251953 C-81.37123711 80.20419967 -81.39061796 72.57593827 -81.39731675 64.94756156 C-81.40123353 60.90700631 -81.41046203 56.8666183 -81.43224144 52.82611656 C-81.45256483 49.02503189 -81.45889356 45.22418377 -81.45437431 41.42304993 C-81.45520138 40.0262098 -81.46119186 38.62936197 -81.47266769 37.23256874 C-81.48754502 35.32878429 -81.48222843 33.42487365 -81.47581482 31.52104187 C-81.4785802 30.45452739 -81.48134558 29.38801291 -81.48419476 28.2891798 C-81.11505127 25.65551758 -81.11505127 25.65551758 -79.78824329 23.88932514 C-77.12133128 21.92275098 -74.146668 20.65705306 -71.13067627 19.32739258 C-70.43802673 19.01529846 -69.7453772 18.70320435 -69.03173828 18.38165283 C-66.81233396 17.38316651 -64.58890158 16.39405647 -62.36505127 15.40551758 C-60.19560804 14.43404546 -58.02706575 13.46065628 -55.85987854 12.48416138 C-54.40099665 11.83153424 -52.93830294 11.18736954 -51.47215271 10.55123901 C-48.09140363 9.07206311 -44.9797579 7.57227403 -41.82720947 5.63256836 C-29.10488169 -1.84489741 -14.28078439 -0.24368716 0 0 Z " fill="#F6BD14" transform="translate(325.11505126953125,459.344482421875)"/>
<path d="M0 0 C1.77503599 0.00560883 3.55007669 0.00987283 5.32511902 0.01286316 C9.9529039 0.0242108 14.58039751 0.05358873 19.20806885 0.0869751 C23.9479173 0.1178958 28.68781371 0.13141508 33.42773438 0.14648438 C42.69545979 0.17847018 51.96289426 0.23115322 61.23046875 0.29296875 C61.23046875 11.18296875 61.23046875 22.07296875 61.23046875 33.29296875 C55.95820312 33.34195313 50.6859375 33.3909375 45.25390625 33.44140625 C41.90883526 33.47680221 38.56378976 33.5127677 35.21875 33.55078125 C29.91230973 33.61103032 24.60590502 33.66919857 19.29931641 33.71484375 C15.01982318 33.7517864 10.74052587 33.79817054 6.46120071 33.85103226 C4.83061798 33.86952856 3.19999333 33.88465402 1.56934738 33.89631271 C-0.7191081 33.91325705 -3.00711956 33.94231093 -5.29541016 33.97412109 C-7.24732773 33.9941066 -7.24732773 33.9941066 -9.23867798 34.01449585 C-14.7039827 34.44553592 -19.33415145 36.05634025 -23.76953125 39.29296875 C-27.70501889 44.73991179 -27.50135495 49.80126201 -26.76953125 56.29296875 C-25.93461096 59.62080708 -25.1639796 60.55645635 -22.76953125 63.29296875 C-13.88317676 68.5775617 -2.39506171 69.48304595 7.60546875 71.29296875 C46.72740123 78.40099906 46.72740123 78.40099906 60.23046875 95.29296875 C68.66921733 108.5305765 69.84147247 123.06099356 66.97265625 138.25 C63.68920627 151.71214491 56.05115276 162.00278037 44.23046875 169.29296875 C31.68045105 176.44696716 17.6226586 176.73876699 3.59106445 176.57421875 C0.93230888 176.54313639 -1.72584621 176.53323229 -4.38476562 176.52734375 C-15.20843786 176.4777163 -25.97304661 176.05074046 -36.76953125 175.29296875 C-39.79986625 168.1416596 -42.73251889 160.95562862 -45.58203125 153.73046875 C-45.89599854 152.94494629 -46.20996582 152.15942383 -46.53344727 151.35009766 C-46.82405029 150.60808105 -47.11465332 149.86606445 -47.4140625 149.1015625 C-47.67550049 148.43954834 -47.93693848 147.77753418 -48.20629883 147.09545898 C-48.76953125 145.29296875 -48.76953125 145.29296875 -48.76953125 142.29296875 C-47.93538696 142.28932312 -47.10124268 142.28567749 -46.24182129 142.28192139 C-38.35622479 142.2439544 -30.47103822 142.18700336 -22.58573151 142.10906601 C-18.532399 142.0696639 -14.47928136 142.03744012 -10.42578125 142.02197266 C-6.50921103 142.00675771 -2.59323182 141.97222784 1.32307434 141.92465973 C2.81243229 141.90989547 4.30187465 141.90193059 5.79130554 141.9010849 C13.78848484 141.89198266 20.39538166 141.86301313 27.23046875 137.29296875 C31.29286378 133.02224577 32.67603413 129.43716874 32.56640625 123.484375 C31.94552531 119.43420981 30.12325223 116.1616457 27.23046875 113.29296875 C21.66144735 109.85735779 16.11179522 108.37650313 9.71875 107.29296875 C8.82866745 107.13054687 7.9385849 106.968125 7.02153015 106.80078125 C4.19728498 106.28657138 1.37056617 105.78838491 -1.45703125 105.29296875 C-41.75963209 98.16457023 -41.75963209 98.16457023 -55.76953125 81.29296875 C-64.15514594 68.29232021 -64.93677074 51.24056778 -62.15234375 36.2890625 C-58.7826355 23.89867507 -50.15452111 13.66328834 -39.43359375 6.796875 C-26.97322845 0.00214505 -13.78367832 -0.12943498 0 0 Z " fill="#FAC015" transform="translate(1136.76953125,428.70703125)"/>
<path d="M0 0 C13.6479435 -0.06962968 27.29584446 -0.1228772 40.94392967 -0.15543652 C47.28185696 -0.1710664 53.61966237 -0.19225596 59.95751953 -0.22631836 C66.07833676 -0.25900698 72.19903703 -0.27687315 78.31993484 -0.28463173 C80.65061915 -0.29015817 82.98129734 -0.30094985 85.31193161 -0.31719017 C88.58618561 -0.33909042 91.85996143 -0.34196162 95.13427734 -0.34057617 C96.08950287 -0.351362 97.04472839 -0.36214783 98.02890015 -0.3732605 C108.84716438 -0.32399799 117.14740708 2.47899449 125 10 C127.3003595 12.5155379 129.20769035 15.102616 131 18 C131.37898437 18.60714844 131.75796875 19.21429688 132.1484375 19.83984375 C139.60640207 33.99876145 138.42977482 52.86853363 138.328125 68.3828125 C138.3250581 70.46076317 138.32318907 72.5387159 138.32244873 74.6166687 C138.31789317 78.92437882 138.30363744 83.23189701 138.28125 87.53955078 C138.25264892 93.07108274 138.24200137 98.60246669 138.2375679 104.13406563 C138.23342743 108.40267417 138.22362673 112.67125273 138.21169281 116.93984604 C138.20598949 118.98209266 138.20123099 121.02434213 138.19742584 123.06659317 C138.19059591 125.89747557 138.17698783 128.72823766 138.16113281 131.55908203 C138.16001495 132.40460632 138.15889709 133.25013062 138.15774536 134.12127686 C138.1147128 139.8852872 138.1147128 139.8852872 137 141 C134.3337397 141.08855161 131.69352886 141.11524673 129.02734375 141.09765625 C128.22970108 141.0962413 127.43205841 141.09482635 126.61024475 141.09336853 C124.05262565 141.08775316 121.49509282 141.07519812 118.9375 141.0625 C117.20768355 141.05748698 115.47786574 141.05292373 113.74804688 141.04882812 C109.49866447 141.03777875 105.24934688 141.02050386 101 141 C100.99453156 139.26685043 100.99453156 139.26685043 100.98895264 137.49868774 C100.95192835 126.58225643 100.8940744 115.66610527 100.81609726 104.74988747 C100.77667535 99.13842261 100.74446085 93.52711344 100.72900391 87.91552734 C100.71380266 82.49477215 100.67929521 77.07444513 100.63169098 71.65388107 C100.61691298 69.59119779 100.60896105 67.52845336 100.60811615 65.46571732 C100.60573396 62.56473994 100.57855377 59.66493393 100.54589844 56.76416016 C100.5509288 55.92114349 100.55595917 55.07812683 100.56114197 54.20956421 C100.44233207 47.33794038 99.06233572 40.06100015 94.04510117 35.04595375 C86.51360358 28.98203007 79.11092183 28.63599991 69.75 28.625 C68.12771484 28.58826172 68.12771484 28.58826172 66.47265625 28.55078125 C57.92212341 28.51983843 50.70187434 29.84946864 44.0625 35.5 C43.381875 36.325 42.70125 37.15 42 38 C41.1646875 38.99 41.1646875 38.99 40.3125 40 C36.84776573 45.27959508 36.70126909 49.96000453 36.69702148 56.08886719 C36.68436249 57.44817604 36.68436249 57.44817604 36.67144775 58.83494568 C36.64571152 61.8222609 36.63354183 64.80947749 36.62109375 67.796875 C36.60491922 69.87242414 36.58773927 71.94796567 36.56959534 74.02349854 C36.52393888 79.48106378 36.48911124 84.93863911 36.45739746 90.39630127 C36.40548214 99.14658058 36.34055553 107.89674865 36.26918221 116.64688873 C36.24627758 119.7097931 36.23005608 122.7726831 36.21446228 125.83563232 C36.20106274 127.6999935 36.18744856 129.56435316 36.17358398 131.42871094 C36.16966393 132.71596321 36.16966393 132.71596321 36.16566467 134.02922058 C36.11364037 139.88635963 36.11364037 139.88635963 35 141 C32.41810554 141.10091475 29.863535 141.13971499 27.28125 141.1328125 C26.12163757 141.13424759 26.12163757 141.13424759 24.93859863 141.13571167 C23.30102456 141.13639341 21.66344781 141.13453957 20.02587891 141.13037109 C17.51068079 141.12502271 14.99566127 141.13031626 12.48046875 141.13671875 C10.89322877 141.13605797 9.3059889 141.1347768 7.71875 141.1328125 C6.96146606 141.13483673 6.20418213 141.13686096 5.4239502 141.13894653 C0.11495132 141.11495132 0.11495132 141.11495132 -1 140 C-1.0983411 138.32469697 -1.12632002 136.64522777 -1.12698364 134.96704102 C-1.12980347 133.87641861 -1.13262329 132.7857962 -1.13552856 131.66212463 C-1.13350433 130.45491257 -1.1314801 129.2477005 -1.12939453 128.00390625 C-1.13114685 126.74049911 -1.13289917 125.47709198 -1.13470459 124.17539978 C-1.13928082 120.69768321 -1.13748762 117.21999617 -1.1343255 113.74227905 C-1.13179849 110.10162271 -1.13414081 106.46096894 -1.13571167 102.8203125 C-1.13753422 96.69677272 -1.13512677 90.57324498 -1.13037109 84.44970703 C-1.12494771 77.38517631 -1.12667672 70.32067453 -1.1321975 63.25614452 C-1.13674945 57.18724159 -1.13736842 51.11834733 -1.13475883 45.04944324 C-1.13320499 41.42684773 -1.13297733 37.80426577 -1.13629532 34.18167114 C-1.13974505 30.13151365 -1.13495037 26.08140516 -1.12939453 22.03125 C-1.13141876 20.84023178 -1.13344299 19.64921356 -1.13552856 18.42210388 C-1.11975789 12.19631854 -0.82385553 6.17255316 0 0 Z " fill="#2E4050" transform="translate(480,462)"/>
<path d="M0 0 C2.69540315 -0.26686213 5.15847464 -0.34818073 7.8515625 -0.29296875 C8.62559418 -0.28872391 9.39962585 -0.28447906 10.19711304 -0.28010559 C12.67342677 -0.26328998 15.14893158 -0.22563395 17.625 -0.1875 C19.30207159 -0.17245682 20.97915592 -0.15876778 22.65625 -0.14648438 C26.77114581 -0.11337721 30.88543569 -0.06157637 35 0 C39.71074484 9.98910046 43.83593711 20.21285923 48 30.4375 C48.79478065 32.38495281 49.58962272 34.33238055 50.38452148 36.27978516 C57.17541079 52.92923065 63.922782 69.59639577 70.64135742 86.27514648 C71.52651822 88.47249821 72.41169093 90.66984514 73.296875 92.8671875 C73.96774895 94.53265373 73.96774895 94.53265373 74.6521759 96.23176575 C77.79457915 104.02661276 80.95462138 111.8141238 84.12245178 119.59866333 C86.1661233 124.62111057 88.20500821 129.64549678 90.24278164 134.67033958 C91.66373658 138.17331242 93.08724956 141.67520032 94.51663208 145.17474365 C95.85810309 148.45913601 97.19310415 151.74608358 98.52329254 155.03506088 C99.25230404 156.83252428 99.98834318 158.62713236 100.72454834 160.42166138 C101.15809631 161.49681 101.59164429 162.57195862 102.03833008 163.6796875 C102.6095031 165.08323486 102.6095031 165.08323486 103.19221497 166.51513672 C104 169 104 169 104 173 C91.79 173 79.58 173 67 173 C62.4966657 162.86749783 62.4966657 162.86749783 61.10546875 159.37890625 C60.79327393 158.59781494 60.4810791 157.81672363 60.15942383 157.01196289 C59.67832153 155.79947876 59.67832153 155.79947876 59.1875 154.5625 C58.84420654 153.70068115 58.50091309 152.8388623 58.1472168 151.95092773 C53.93058223 141.34386563 49.80521188 130.7018116 45.71386719 120.04589844 C41.91264994 110.16256071 38.05446026 100.30154985 34.19126034 90.44230938 C32.93418334 87.23410758 31.67861049 84.02533467 30.42651367 80.81518555 C28.96433781 77.06653841 27.49603488 73.32031813 26.02734375 69.57421875 C25.58245102 68.4313591 25.13755829 67.28849945 24.67918396 66.11100769 C22.37347758 60.24582754 19.92773681 54.58199206 17 49 C10.22245853 65.45196669 3.64971196 81.96144043 -2.69335938 98.58642578 C-5.24780613 105.25987019 -7.83786128 111.91958681 -10.42224121 118.58148193 C-13.65450364 126.9156488 -16.86752149 135.25693257 -20.0625 143.60546875 C-20.75427297 145.41122959 -21.44608596 147.21697509 -22.13793945 149.02270508 C-23.16024943 151.69099078 -24.18163029 154.35961251 -25.20004272 157.02938843 C-26.14535424 159.50747026 -27.09385237 161.98431096 -28.04296875 164.4609375 C-28.32781128 165.2104216 -28.61265381 165.9599057 -28.90612793 166.73210144 C-30.88631182 171.88631182 -30.88631182 171.88631182 -32 173 C-34.73894085 173.08858646 -37.4525327 173.11523479 -40.19140625 173.09765625 C-41.01124496 173.0962413 -41.83108368 173.09482635 -42.67576599 173.09336853 C-45.30471382 173.08775289 -47.93357773 173.07519779 -50.5625 173.0625 C-52.34049357 173.05748701 -54.11848846 173.05292376 -55.89648438 173.04882812 C-60.26435545 173.03777839 -64.63216348 173.02050331 -69 173 C-68.42238915 168.93994389 -67.52986757 165.35280635 -66.05078125 161.53125 C-65.62595459 160.43006836 -65.20112793 159.32888672 -64.76342773 158.19433594 C-64.28462158 156.97520508 -63.80581543 155.75607422 -63.3125 154.5 C-63.06267365 153.85905396 -62.81284729 153.21810791 -62.55545044 152.55773926 C-54.21462513 131.16102233 -45.42930932 109.93768298 -36.73364258 88.68359375 C-30.25074171 72.83601998 -23.78677952 56.98128602 -17.40234375 41.09375 C-16.9494548 39.96753235 -16.49656586 38.8413147 -16.029953 37.68096924 C-14.19110023 33.10801948 -12.3523078 28.53505646 -10.51879883 23.95996094 C-9.14973393 20.54497415 -7.7764343 17.13171713 -6.40234375 13.71875 C-5.98782455 12.6814978 -5.57330536 11.64424561 -5.14622498 10.57556152 C-4.56905479 9.14500427 -4.56905479 9.14500427 -3.98022461 7.68554688 C-3.64478134 6.84987183 -3.30933807 6.01419678 -2.96372986 5.15319824 C-2 3 -2 3 0 0 Z " fill="#FAC016" transform="translate(977,430)"/>
<path d="M0 0 C11.88 0 23.76 0 36 0 C36.029729 3.8825354 36.029729 3.8825354 36.06005859 7.84350586 C36.12711107 16.41704454 36.2047482 24.99046418 36.28752708 33.56386471 C36.33736941 38.75942782 36.38370019 43.95497179 36.421875 49.15063477 C36.45888058 54.16928227 36.50528126 59.18776472 36.55806351 64.20627022 C36.57652656 66.11627861 36.59166402 68.02632228 36.60334396 69.9363842 C36.62034562 72.62174075 36.64941275 75.3067259 36.68115234 77.99194336 C36.68331253 78.77310013 36.68547272 79.5542569 36.68769836 80.35908508 C36.81589093 88.90722219 38.08273068 97.47108986 44 104 C53.35723794 110.73386945 63.82524467 111.14551937 75 110 C81.77995032 108.56182872 87.90525264 105.71672226 93 101 C94.59449299 98.56471128 94.59449299 98.56471128 95.75 95.9375 C96.15734375 95.08027344 96.5646875 94.22304688 96.984375 93.33984375 C99.01059484 88.67174496 99.16980561 84.59259607 99.20532227 79.58129883 C99.21522186 78.72254654 99.22512146 77.86379425 99.23532104 76.97901917 C99.26692766 74.13838465 99.29169021 71.2977334 99.31640625 68.45703125 C99.3369765 66.48833276 99.35797299 64.51963868 99.37937927 62.5509491 C99.43459262 57.36751882 99.48400518 52.18404873 99.53222656 47.00054932 C99.58244694 41.71191868 99.63813021 36.42334591 99.69335938 31.13476562 C99.80093196 20.75655799 99.90187421 10.37830125 100 0 C111.88 0 123.76 0 136 0 C136.02254627 18.23646288 136.04097873 36.47291452 136.05181217 54.70938778 C136.05697532 63.17629939 136.06401838 71.64320175 136.07543945 80.11010742 C136.08538572 87.48717094 136.09185329 94.86422775 136.09408849 102.24129778 C136.0953957 106.14982053 136.09848217 110.05832412 136.10573006 113.96684074 C136.11248937 117.64146442 136.11461715 121.31606093 136.11310768 124.99069023 C136.11351638 126.99079611 136.11891204 128.99089898 136.12442017 130.99099731 C136.1230455 132.17035355 136.12167084 133.34970978 136.12025452 134.56480408 C136.12163721 136.1120336 136.12163721 136.1120336 136.12304783 137.69052029 C136 140 136 140 135 141 C132.40640678 141.08851529 129.83960309 141.11525945 127.24609375 141.09765625 C126.47064713 141.0962413 125.6952005 141.09482635 124.89625549 141.09336853 C122.40996506 141.08775345 119.9237634 141.07519846 117.4375 141.0625 C115.75586067 141.05748694 114.07421994 141.0529237 112.39257812 141.04882812 C108.26165671 141.03862832 104.13092818 141.01905605 100 141 C100 135.72 100 130.44 100 125 C98.906875 126.010625 97.81375 127.02125 96.6875 128.0625 C80.2510702 142.23282517 63.07736091 144.54135083 42 143 C29.98693368 141.38833992 18.9531844 136.16400156 11.15625 126.78125 C6.77917961 120.92042693 4.03642511 115.00684659 2 108 C1.48652512 106.2443573 1.48652512 106.2443573 0.962677 104.45324707 C-0.2385679 99.58870345 -0.26663111 94.90089347 -0.22705078 89.91210938 C-0.22734283 88.93558411 -0.22763489 87.95905884 -0.22793579 86.95294189 C-0.22655097 83.74978512 -0.21102977 80.54686576 -0.1953125 77.34375 C-0.19157936 75.11316047 -0.18873381 72.8825693 -0.18673706 70.65197754 C-0.17912435 64.79943259 -0.15949617 58.94698793 -0.1373291 53.09448242 C-0.11681973 47.11508541 -0.10772447 41.1356721 -0.09765625 35.15625 C-0.07624801 23.437449 -0.04108515 11.71874855 0 0 Z " fill="#2E3F50" transform="translate(747,462)"/>
<path d="M0 0 C0.33 15.18 0.66 30.36 1 46 C12.88 46.33 24.76 46.66 37 47 C37 56.9 37 66.8 37 77 C24.46 77 11.92 77 -1 77 C-0.93812478 88.51098177 -0.93812478 88.51098177 -0.83984375 100.02148438 C-0.79164653 104.72192656 -0.7475506 109.42213783 -0.72900391 114.12280273 C-0.71376688 117.91619238 -0.67919881 121.70897451 -0.63169098 125.50209236 C-0.61694923 126.94317379 -0.60896315 128.384342 -0.60811615 129.82549858 C-0.65164098 142.77385754 -0.65164098 142.77385754 5.62994385 153.69358826 C11.70066731 158.82321579 20.5717842 157.55158383 28 157 C31.33669535 156.69623088 34.66893134 156.36004619 38 156 C38.67659781 159.68574858 39.33947761 163.37383949 40 167.0625 C40.19078125 168.10083984 40.3815625 169.13917969 40.578125 170.20898438 C41.52850018 175.55484477 42.24648667 180.56959064 42 186 C23.03641682 191.36343767 -0.45678056 194.22234237 -18.375 184.25 C-28.96421988 177.24772818 -34.07861736 168.57835971 -37.33883667 156.42312622 C-38.67024454 149.52985644 -38.48482401 142.51577538 -38.51171875 135.51953125 C-38.52859656 133.85372115 -38.54675088 132.18792354 -38.56611633 130.5221405 C-38.61328621 126.17397977 -38.64330779 121.8258697 -38.66955566 117.47753906 C-38.69952933 113.02593991 -38.74600118 108.57451485 -38.79101562 104.12304688 C-38.87667247 95.41543646 -38.94265528 86.70784293 -39 78 C-46.26 77.67 -53.52 77.34 -61 77 C-61 67.1 -61 57.2 -61 47 C-53.41 47 -45.82 47 -38 47 C-38.185625 44.195 -38.37125 41.39 -38.5625 38.5 C-38.74668761 30.26710625 -38.74668761 30.26710625 -36.453125 26.375 C-34.09144613 24.30637617 -31.6573559 22.67191976 -29 21 C-27.46954989 19.82625636 -25.93965857 18.6515857 -24.42578125 17.45654297 C-22.79824566 16.17628722 -21.15216171 14.92404912 -19.5 13.67578125 C-17.01496081 11.78865154 -14.56260345 9.86598369 -12.125 7.91796875 C-11.48844482 7.41048096 -10.85188965 6.90299316 -10.19604492 6.38012695 C-8.95885207 5.3914952 -7.72453766 4.39924843 -6.4934082 3.40307617 C-2.22154018 0 -2.22154018 0 0 0 Z " fill="#2E3F50" transform="translate(692,415)"/>
<path d="M0 0 C7.643664 -0.06311282 15.28637054 -0.12319372 22.93006897 -0.15525055 C26.4904407 -0.17101645 30.0505941 -0.19204366 33.61083984 -0.22631836 C37.70672582 -0.26549776 41.80238474 -0.27977284 45.8984375 -0.29296875 C47.1592514 -0.30845261 48.42006531 -0.32393646 49.71908569 -0.33988953 C64.67884307 -0.34271319 75.82118366 4.28886594 86.703125 14.5625 C98.50305133 27.0848708 98.63635249 42.96044452 98.29296875 59.24609375 C97.66922099 75.37142081 92.20418959 90.9401745 80.25390625 102.1875 C68.10273579 111.95897849 54.53615762 114.64556926 39.3125 114.3125 C37.93035209 114.30097534 36.54818845 114.29120011 35.16601562 114.28320312 C25.16886475 114.16886475 25.16886475 114.16886475 24 113 C23.78167011 108.60001055 23.81420854 104.19465188 23.81469727 99.78979492 C23.81251249 97.57516218 23.79436469 95.36102877 23.77539062 93.14648438 C23.77245644 91.74479338 23.77047181 90.3431 23.76953125 88.94140625 C23.76542236 87.65951416 23.76131348 86.37762207 23.75708008 85.05688477 C24 82 24 82 26 80 C28.19555664 79.72875977 28.19555664 79.72875977 30.91015625 79.69140625 C31.90080078 79.66626953 32.89144531 79.64113281 33.91210938 79.61523438 C35.9849712 79.58053675 38.05789236 79.54919431 40.13085938 79.52148438 C47.2924823 79.33217004 54.3988166 78.92922345 60.15625 74.24609375 C60.5996875 73.64925781 61.043125 73.05242187 61.5 72.4375 C61.9640625 71.83808594 62.428125 71.23867188 62.90625 70.62109375 C65.98497899 66.05797757 65.26341806 61.09665917 65.3125 55.75 C65.34150391 54.71230469 65.37050781 53.67460938 65.40039062 52.60546875 C65.45209158 46.3774925 65.14568774 42.7468515 61 38 C60.505 37.4225 60.01 36.845 59.5 36.25 C56.02717706 33.35598089 53.05888147 32.7438161 48.58886719 32.68115234 C47.50804871 32.66128265 46.42723022 32.64141296 45.31365967 32.62094116 C44.15312073 32.60938995 42.99258179 32.59783875 41.796875 32.5859375 C40.60394836 32.56657135 39.41102173 32.5472052 38.1819458 32.5272522 C34.37136996 32.46746733 30.5607639 32.42107473 26.75 32.375 C24.16665348 32.33681928 21.58331968 32.2977675 19 32.2578125 C12.66673278 32.16012714 6.33360125 32.08054781 0 32 C0 21.44 0 10.88 0 0 Z " fill="#495465" transform="translate(299,460)"/>
<path d="M0 0 C12.21 0 24.42 0 37 0 C37 32.67 37 65.34 37 99 C24.79 99 12.58 99 0 99 C0 66.33 0 33.66 0 0 Z " fill="#304354" transform="translate(417,506)"/>
<path d="M0 0 C2.625 -0.1875 2.625 -0.1875 5 0 C7.99469643 5.77990958 10.5224706 11.6057028 12.85546875 17.6796875 C13.20257401 18.57366241 13.54967926 19.46763733 13.90730286 20.38870239 C15.00435134 23.21607046 16.09614297 26.04543078 17.1875 28.875 C18.2905886 31.72558662 19.39476454 34.57574764 20.49983215 37.42556763 C21.18454766 39.19234859 21.86793126 40.95964642 22.54985046 42.72750854 C22.8571962 43.52238678 23.16454193 44.31726501 23.48120117 45.13623047 C23.88613045 46.18591507 23.88613045 46.18591507 24.29924011 47.25680542 C24.99896882 49.06571305 24.99896882 49.06571305 26 51 C26 52.98 26 54.96 26 57 C10.49 57 -5.02 57 -21 57 C-21 50.28076718 -21 50.28076718 -19.4765625 46.83984375 C-17.36008482 41.86379028 -15.36126285 36.85452303 -13.3984375 31.81640625 C-12.73742556 30.13068426 -12.07595988 28.44514014 -11.4140625 26.75976562 C-10.38748908 24.14467111 -9.36198641 21.52918337 -8.33984375 18.91235352 C-7.34182011 16.35823837 -6.33931 13.80592402 -5.3359375 11.25390625 C-5.0307016 10.46955704 -4.7254657 9.68520782 -4.41098022 8.87709045 C-3.14922154 5.67805907 -1.91464611 2.87196917 0 0 Z " fill="#FAC117" transform="translate(992,546)"/>
<path d="M0 0 C11.88 0 23.76 0 36 0 C36 11.22 36 22.44 36 34 C24.12 34 12.24 34 0 34 C0 22.78 0 11.56 0 0 Z " fill="#2E4152" transform="translate(418,462)"/>
<path d="M0 0 C0.33 0 0.66 0 1 0 C1.04667146 18.3495653 1.08196498 36.69911525 1.10362434 55.04872704 C1.1139474 63.56831214 1.12802732 72.08786041 1.15087891 80.60742188 C1.17078136 88.03100694 1.18370895 95.45456533 1.18817699 102.87817633 C1.19078972 106.81078937 1.19695198 110.74332612 1.21146011 114.67591476 C1.22499444 118.37436541 1.22923111 122.07270805 1.22621536 125.77118111 C1.2270314 127.78184 1.23781468 129.79248702 1.24884033 131.80311584 C1.246091 132.99226089 1.24334167 134.18140594 1.24050903 135.40658569 C1.24235262 136.44452459 1.24419621 137.48246349 1.24609566 138.55185509 C1 141 1 141 -1 143 C-3.64116113 143.18737649 -6.1755398 143.25569866 -8.81640625 143.23046875 C-9.58806625 143.23001053 -10.35972626 143.22955231 -11.1547699 143.2290802 C-12.78638242 143.22605787 -14.41799205 143.21817213 -16.04956055 143.20581055 C-18.55593 143.18754787 -21.06193033 143.18530088 -23.56835938 143.18554688 C-25.15104488 143.18063198 -26.73372787 143.17480379 -28.31640625 143.16796875 C-29.44762657 143.16629951 -29.44762657 143.16629951 -30.60169983 143.16459656 C-35.88394881 143.11605119 -35.88394881 143.11605119 -37 142 C-37.07271741 139.64686445 -37.08370868 137.29166332 -37.0625 134.9375 C-37.05347656 133.64714844 -37.04445313 132.35679687 -37.03515625 131.02734375 C-37.02355469 130.02832031 -37.01195312 129.02929688 -37 128 C-37.61746094 128.51949219 -38.23492188 129.03898438 -38.87109375 129.57421875 C-52.74676525 141 -52.74676525 141 -58 141 C-58 140.34 -58 139.68 -58 139 C-57.09121094 138.61521484 -57.09121094 138.61521484 -56.1640625 138.22265625 C-49.76714067 135.29975504 -45.07367354 131.68380045 -40.03125 126.79296875 C-38 125 -38 125 -36 125 C-36 130.28 -36 135.56 -36 141 C-24.45 140.67 -12.9 140.34 -1 140 C-0.67 93.8 -0.34 47.6 0 0 Z " fill="#E2E3E5" transform="translate(883,462)"/>
<path d="M0 0 C0.66 0 1.32 0 2 0 C3.6640625 2.01953125 3.6640625 2.01953125 5.625 4.8125 C6.33011719 5.80765625 7.03523438 6.8028125 7.76171875 7.828125 C8.50035156 8.87484375 9.23898437 9.9215625 10 11 C11.47645299 13.02281684 12.9554847 15.04375484 14.4375 17.0625 C17.87692308 21.75384615 17.87692308 21.75384615 19 24 C15 22 15 22 3 6 C2.67 38.34 2.34 70.68 2 104 C1.01 104.495 1.01 104.495 0 105 C0 70.35 0 35.7 0 0 Z " fill="#FDECB2" transform="translate(1255,499)"/>
<path d="M0 0 C2.05078125 0.03255208 4.1015625 0.06510417 6.15234375 0.09765625 C6.15234375 0.42765625 6.15234375 0.75765625 6.15234375 1.09765625 C3.84234375 1.09765625 1.53234375 1.09765625 -0.84765625 1.09765625 C-0.84765625 35.41765625 -0.84765625 69.73765625 -0.84765625 105.09765625 C-2.16765625 104.76765625 -3.48765625 104.43765625 -4.84765625 104.09765625 C-6.09765625 101.53515625 -6.09765625 101.53515625 -6.84765625 99.09765625 C-5.85765625 99.75765625 -4.86765625 100.41765625 -3.84765625 101.09765625 C-3.83734879 99.84706924 -3.82704132 98.59648224 -3.81642151 97.30799866 C-3.71886923 85.55005938 -3.61615289 73.79217519 -3.50831699 62.0343256 C-3.45303883 55.98880442 -3.39961115 49.94327845 -3.3503418 43.89770508 C-3.30277025 38.06867036 -3.25043034 32.23969655 -3.1947155 26.41073418 C-3.17425916 24.18149765 -3.15555164 21.95224439 -3.13858223 19.72297859 C-3.11461054 16.61221361 -3.08454647 13.50156496 -3.05297852 10.39086914 C-3.04722305 9.45939056 -3.04146759 8.52791199 -3.03553772 7.56820679 C-2.94944532 0.15589034 -2.94944532 0.15589034 0 0 Z " fill="#FDE39A" transform="translate(1327.84765625,428.90234375)"/>
<path d="M0 0 C3.64581687 -0.02887512 7.29160463 -0.04675585 10.9375 -0.0625 C12.49887695 -0.07506836 12.49887695 -0.07506836 14.09179688 -0.08789062 C15.57583008 -0.09272461 15.57583008 -0.09272461 17.08984375 -0.09765625 C18.46450806 -0.10551147 18.46450806 -0.10551147 19.86694336 -0.11352539 C22 0 22 0 23 1 C23.11369041 3.28305968 23.1568975 5.56964098 23.17358398 7.85546875 C23.180271 8.57267593 23.18695801 9.28988312 23.19384766 10.02882385 C23.20793406 11.592644 23.21981657 13.15648516 23.22979546 14.72033691 C23.24618511 17.20132935 23.26942751 19.68216899 23.29469299 22.16308594 C23.36548582 29.21948623 23.42530476 36.27595279 23.47680664 43.33251953 C23.50876825 47.64557959 23.55009931 51.95847066 23.59700203 56.27139282 C23.61293552 57.91066412 23.62529662 59.54997443 23.63390923 61.18930054 C23.67731539 69.34122545 23.74422588 77.09379092 26 85 C25.34 85 24.68 85 24 85 C21.54032159 78.27687901 20.87357997 71.91027645 20.88647461 64.77954102 C20.88632858 64.09576889 20.88618256 63.41199677 20.8860321 62.70750427 C20.88672245 60.47293803 20.89447323 58.23845772 20.90234375 56.00390625 C20.90421105 54.44449407 20.90563348 52.88508131 20.90663147 51.32566833 C20.91043204 47.24043124 20.92024109 43.15523025 20.93133545 39.07000732 C20.94160269 34.89368172 20.94614043 30.71735024 20.95117188 26.54101562 C20.96186577 18.36065875 20.97944241 10.18033804 21 2 C14.07 2 7.14 2 0 2 C0 1.34 0 0.68 0 0 Z " fill="#BCC2C7" transform="translate(631,492)"/>
<path d="M0 0 C1.62974564 0.76074843 3.25366648 1.53398433 4.875 2.3125 C5.77992188 2.74175781 6.68484375 3.17101562 7.6171875 3.61328125 C10 5 10 5 12 8 C12.20914921 10.47964105 12.30404537 12.84868368 12.30639648 15.32958984 C12.31472 16.07302139 12.32304352 16.81645294 12.33161926 17.58241272 C12.35572997 20.04197414 12.36449259 22.50127041 12.37109375 24.9609375 C12.38005933 26.6710315 12.38918116 28.38112468 12.39845276 30.09121704 C12.41494824 33.67736722 12.42264387 37.26342397 12.42553711 40.84960938 C12.43092134 45.44215538 12.46859993 50.03382197 12.51428127 54.62611961 C12.54404234 58.1589172 12.55126045 61.69150278 12.55226326 65.22441483 C12.55646755 66.917304 12.56891031 68.6101937 12.58978081 70.30295944 C12.61667699 72.6731686 12.61187683 75.04133661 12.59936523 77.41162109 C12.61419952 78.10893845 12.62903381 78.8062558 12.64431763 79.52470398 C12.58487313 83.48473724 12.0774596 84.90920605 9.46253967 87.97427368 C8.64990158 88.64276337 7.83726349 89.31125305 7 90 C6.01 89.67 5.02 89.34 4 89 C4.495 88.01 4.495 88.01 5 87 C6.32 87 7.64 87 9 87 C9 60.6 9 34.2 9 7 C6.03 5.35 3.06 3.7 0 2 C0 1.34 0 0.68 0 0 Z " fill="#B8A85A" transform="translate(281,515)"/>
<path d="M0 0 C0.99 0.33 1.98 0.66 3 1 C2.67 1.66 2.34 2.32 2 3 C1.01 3.33 0.02 3.66 -1 4 C-1 51.52 -1 99.04 -1 148 C-1.66 148 -2.32 148 -3 148 C-3.07002839 129.14618537 -3.12295786 110.29239706 -3.15543652 91.43847942 C-3.17091661 82.68460942 -3.19202787 73.93082015 -3.22631836 65.17700195 C-3.25618584 57.54868209 -3.27556669 49.92042069 -3.28226548 42.29204398 C-3.28618226 38.25148873 -3.29541076 34.21110072 -3.31719017 30.17059898 C-3.33751356 26.36951431 -3.34384229 22.56866619 -3.33932304 18.76753235 C-3.34015011 17.37069222 -3.34614059 15.97384439 -3.35761642 14.57705116 C-3.37249375 12.67326671 -3.36717716 10.76935607 -3.36076355 8.86552429 C-3.36352893 7.79900981 -3.36629431 6.73249533 -3.36914349 5.63366222 C-2.9544247 2.67484204 -2.33183463 1.78883098 0 0 Z " fill="#F4B334" transform="translate(247,482)"/>
<path d="M0 0 C0.495 7.92 0.495 7.92 1 16 C12.22 16.33 23.44 16.66 35 17 C35 17.33 35 17.66 35 18 C30.03377651 18.02465098 25.06758834 18.04283649 20.10131836 18.05493164 C18.41055684 18.0599719 16.71979971 18.06680405 15.02905273 18.07543945 C12.60399293 18.08751857 10.17899056 18.09323123 7.75390625 18.09765625 C6.61327477 18.10539818 6.61327477 18.10539818 5.44960022 18.11329651 C3.6326743 18.11349238 1.81586873 18.06197277 0 18 C-1 17 -1 17 -1.09765625 13.83984375 C-1.08605469 12.55207031 -1.07445312 11.26429688 -1.0625 9.9375 C-1.05347656 8.64714844 -1.04445313 7.35679687 -1.03515625 6.02734375 C-1.02355469 5.02832031 -1.01195312 4.02929688 -1 3 C-1.61746094 3.51949219 -2.23492188 4.03898438 -2.87109375 4.57421875 C-16.74676525 16 -16.74676525 16 -22 16 C-22 15.34 -22 14.68 -22 14 C-21.39414062 13.74347656 -20.78828125 13.48695313 -20.1640625 13.22265625 C-13.76714067 10.29975504 -9.07367354 6.68380045 -4.03125 1.79296875 C-2 0 -2 0 0 0 Z " fill="#D9DCE0" transform="translate(847,587)"/>
<path d="M0 0 C0.99 0 1.98 0 3 0 C4.38226016 2.76452033 4.09525387 5.0461363 4.0625 8.125 C4.05347656 9.22070312 4.04445313 10.31640625 4.03515625 11.4453125 C4.02355469 12.28835938 4.01195312 13.13140625 4 14 C2.34385343 14.38218767 0.67542976 14.71395102 -1 15 C-2.80746134 13.19253866 -2.17303483 10.49554219 -2.1875 8.0625 C-2.20167969 6.98097656 -2.21585937 5.89945313 -2.23046875 4.78515625 C-2 2 -2 2 0 0 Z " fill="#31321B" transform="translate(282,556)"/>
<path d="M0 0 C0.99 0.33 1.98 0.66 3 1 C2.67 1.66 2.34 2.32 2 3 C1.01 3.33 0.02 3.66 -1 4 C-1.33 25.78 -1.66 47.56 -2 70 C-2.33 70 -2.66 70 -3 70 C-3.06947174 61.3161375 -3.1227967 52.63237046 -3.15543652 43.94829082 C-3.17110102 39.91602967 -3.1923533 35.88395847 -3.22631836 31.85180664 C-3.25888429 27.9614608 -3.27684711 24.0712978 -3.28463173 20.18082619 C-3.29018026 18.69562717 -3.30101511 17.2104383 -3.31719017 15.725317 C-3.33892851 13.64697928 -3.34196856 11.56939968 -3.34057617 9.4909668 C-3.34723801 8.30738083 -3.35389984 7.12379486 -3.36076355 5.90434265 C-3 3 -3 3 -1.47871399 1.09431458 C-0.99073837 0.73319077 -0.50276276 0.37206696 0 0 Z " fill="#F5C03A" transform="translate(247,482)"/>
<path d="M0 0 C0.66 0 1.32 0 2 0 C2 3.63 2 7.26 2 11 C1.01 11.33 0.02 11.66 -1 12 C-1.02687279 10.18757948 -1.04633715 8.37504767 -1.0625 6.5625 C-1.07410156 5.55316406 -1.08570313 4.54382813 -1.09765625 3.50390625 C-1 1 -1 1 0 0 Z " fill="#212A39" transform="translate(283,557)"/>
<path d="M0 0 C0 1.98 0 3.96 0 6 C-0.33 5.01 -0.66 4.02 -1 3 C-2.051875 3.309375 -3.10375 3.61875 -4.1875 3.9375 C-7.12752396 4.75685094 -10.00161623 5.45483931 -13 6 C-9.79001231 2.03472109 -5.0381893 0 0 0 Z " fill="#E9CC49" transform="translate(298,460)"/>
<path d="M0 0 C0.99 0.33 1.98 0.66 3 1 C2.67 1.66 2.34 2.32 2 3 C1.01 3.33 0.02 3.66 -1 4 C-1.33 9.61 -1.66 15.22 -2 21 C-2.33 21 -2.66 21 -3 21 C-3.08086376 18.06195004 -3.1404283 15.12611925 -3.1875 12.1875 C-3.21263672 11.35412109 -3.23777344 10.52074219 -3.26367188 9.66210938 C-3.27333984 8.85966797 -3.28300781 8.05722656 -3.29296875 7.23046875 C-3.3086792 6.49207764 -3.32438965 5.75368652 -3.34057617 4.99291992 C-2.91074167 2.47769478 -1.92536938 1.60558484 0 0 Z " fill="#EECB49" transform="translate(247,482)"/>
<path d="M0 0 C4.95 0 9.9 0 15 0 C14.67 0.99 14.34 1.98 14 3 C12.04098546 2.88617347 10.0827662 2.75858875 8.125 2.625 C7.03445313 2.55539062 5.94390625 2.48578125 4.8203125 2.4140625 C2 2 2 2 0 0 Z " fill="#F9C72D" transform="translate(1347,430)"/>
<path d="M0 0 C4.62 0 9.24 0 14 0 C14.33 0.99 14.66 1.98 15 3 C12.87436897 2.88623383 10.7494739 2.75864369 8.625 2.625 C7.44164062 2.55539062 6.25828125 2.48578125 5.0390625 2.4140625 C2 2 2 2 0 0 Z " fill="#F9C424" transform="translate(998,430)"/>
<path d="M0 0 C4.60209225 -0.17700355 6.78370866 -0.10814567 11 2 C7.37 2.33 3.74 2.66 0 3 C0 2.01 0 1.02 0 0 Z " fill="#FAC737" transform="translate(977,430)"/>
<path d="M0 0 C2.31 0.33 4.62 0.66 7 1 C6.34 2.65 5.68 4.3 5 6 C4.34 5.67 3.68 5.34 3 5 C3 3.68 3 2.36 3 1 C2.01 0.67 1.02 0.34 0 0 Z " fill="#697785" transform="translate(512,462)"/>
<path d="M0 0 C0.33 0 0.66 0 1 0 C1.1875 3.375 1.1875 3.375 1 7 C0.01 7.66 -0.98 8.32 -2 9 C-2.99 8.67 -3.98 8.34 -5 8 C-4.67 7.34 -4.34 6.68 -4 6 C-2.68 6 -1.36 6 0 6 C0 4.02 0 2.04 0 0 Z " fill="#E6CE58" transform="translate(290,596)"/>
</svg>
