<svg width="48" height="48" viewBox="0 0 48 48" xmlns="http://www.w3.org/2000/svg">
  <clipPath id="platClip">
    <rect width="48" height="48" rx="10"/>
  </clipPath>
  <rect width="48" height="48" rx="10" fill="#ede9fe"/>
  <g clip-path="url(#platClip)">
    <!-- Crown kiri kuning setengah -->
    <g transform="translate(0,39)">
      <path d="M-13,0 L-11,-17 L-4,-9 L0,-22 L4,-9 L11,-17 L13,0 Z" fill="#f9bd22" stroke="#c8931a" stroke-width="1" stroke-linejoin="round"/>
      <rect x="-13" y="0" width="26" height="4" rx="1.5" fill="#c8931a" opacity="0.5"/>
    </g>
    <!-- Crown tengah ungu penuh -->
    <g transform="translate(24,38)">
      <path d="M-14,1 L-12,-15 L-7,-8 L-4,-18 L0,-26 L4,-18 L7,-8 L12,-15 L14,1 Z" fill="#a78bfa" opacity="0.35"/>
      <path d="M-13,0 L-11,-14 L-6,-7 L-3.5,-17 L0,-25 L3.5,-17 L6,-7 L11,-14 L13,0 Z" fill="#7c3aed" stroke="#5b21b6" stroke-width="0.8" stroke-linejoin="round"/>
      <rect x="-13" y="0" width="26" height="4.5" rx="2" fill="#4c1d95" opacity="0.7"/>
      <path d="M0,-28 L3,-23 L0,-19 L-3,-23 Z" fill="#ddd6fe"/>
      <circle cx="-7" cy="-7" r="1.5" fill="#c4b5fd" opacity="0.85"/>
      <circle cx="7"  cy="-7" r="1.5" fill="#c4b5fd" opacity="0.85"/>
    </g>
    <!-- Crown kanan kuning setengah -->
    <g transform="translate(48,39)">
      <path d="M-13,0 L-11,-17 L-4,-9 L0,-22 L4,-9 L11,-17 L13,0 Z" fill="#f9bd22" stroke="#c8931a" stroke-width="1" stroke-linejoin="round"/>
      <rect x="-13" y="0" width="26" height="4" rx="1.5" fill="#c8931a" opacity="0.5"/>
    </g>
  </g>
</svg>
